<svg width="302" height="72" viewBox="0 0 302 72" fill="none" xmlns="http://www.w3.org/2000/svg">
<rect x="0.5" y="0.5" width="301" height="71" rx="11.5" fill="white"/>
<rect x="0.5" y="0.5" width="301" height="71" rx="11.5" stroke="#EAECF0"/>
<path d="M23.75 20C23.75 18.2051 25.2051 16.75 27 16.75H43C43.1212 16.75 43.2375 16.7982 43.3232 16.8839L54.1161 27.6768C54.2018 27.7625 54.25 27.8788 54.25 28V52C54.25 53.7949 52.7949 55.25 51 55.25H27C25.2051 55.25 23.75 53.7949 23.75 52V20Z" fill="white" stroke="#D0D5DD" stroke-width="1.5"/>
<path d="M43 16.5V24C43 26.2091 44.7909 28 47 28H54.5" stroke="#D0D5DD" stroke-width="1.5"/>
<rect x="17" y="34" width="26" height="16" rx="2" fill="#D92D20"/>
<path d="M20.8323 46V38.7273H23.7016C24.2532 38.7273 24.7232 38.8326 25.1114 39.0433C25.4997 39.2517 25.7956 39.5417 25.9992 39.9134C26.2052 40.2827 26.3082 40.7088 26.3082 41.1918C26.3082 41.6747 26.204 42.1009 25.9957 42.4702C25.7873 42.8395 25.4855 43.1271 25.0901 43.3331C24.6971 43.5391 24.2213 43.642 23.6626 43.642H21.8337V42.4098H23.414C23.7099 42.4098 23.9537 42.3589 24.1455 42.2571C24.3396 42.1529 24.484 42.0097 24.5787 41.8274C24.6758 41.6428 24.7243 41.4309 24.7243 41.1918C24.7243 40.9503 24.6758 40.7396 24.5787 40.5597C24.484 40.3774 24.3396 40.2365 24.1455 40.1371C23.9514 40.0353 23.7052 39.9844 23.4069 39.9844H22.3699V46H20.8323ZM29.885 46H27.3069V38.7273H29.9063C30.6379 38.7273 31.2676 38.8729 31.7955 39.1641C32.3235 39.4529 32.7295 39.8684 33.0136 40.4105C33.3 40.9527 33.4433 41.6013 33.4433 42.3565C33.4433 43.1141 33.3 43.7652 33.0136 44.3097C32.7295 44.8542 32.3211 45.272 31.7884 45.5632C31.2581 45.8544 30.6237 46 29.885 46ZM28.8445 44.6825H29.8211C30.2757 44.6825 30.658 44.602 30.9681 44.4411C31.2806 44.2777 31.515 44.0256 31.6713 43.6847C31.8299 43.3414 31.9092 42.8987 31.9092 42.3565C31.9092 41.8191 31.8299 41.38 31.6713 41.0391C31.515 40.6982 31.2818 40.4472 30.9717 40.2862C30.6615 40.1252 30.2792 40.0447 29.8247 40.0447H28.8445V44.6825ZM34.5823 46V38.7273H39.3976V39.995H36.1199V41.728H39.078V42.9957H36.1199V46H34.5823Z" fill="white"/>
<path d="M69.9787 31H68.348L72.0121 20.8182H73.7869L77.451 31H75.8203L72.9418 22.6676H72.8622L69.9787 31ZM70.2521 27.0128H75.5419V28.3054H70.2521V27.0128ZM84.4696 25.228L83.1223 25.4666C83.066 25.2943 82.9765 25.1302 82.8539 24.9744C82.7346 24.8187 82.5721 24.6911 82.3667 24.5916C82.1612 24.4922 81.9043 24.4425 81.5961 24.4425C81.1751 24.4425 80.8238 24.5369 80.5421 24.7259C80.2604 24.9115 80.1195 25.1518 80.1195 25.4467C80.1195 25.7019 80.214 25.9074 80.4029 26.0632C80.5918 26.219 80.8967 26.3466 81.3176 26.446L82.5307 26.7244C83.2334 26.8868 83.757 27.1371 84.1017 27.4751C84.4464 27.8132 84.6188 28.2524 84.6188 28.7926C84.6188 29.25 84.4862 29.6577 84.2211 30.0156C83.9592 30.3703 83.593 30.6487 83.1223 30.8509C82.655 31.053 82.1131 31.1541 81.4966 31.1541C80.6415 31.1541 79.9438 30.9718 79.4036 30.6072C78.8633 30.2393 78.5319 29.7173 78.4093 29.0412L79.8461 28.8224C79.9355 29.197 80.1195 29.4804 80.3979 29.6726C80.6763 29.8615 81.0392 29.956 81.4867 29.956C81.9739 29.956 82.3633 29.8549 82.655 29.6527C82.9467 29.4472 83.0925 29.197 83.0925 28.902C83.0925 28.6634 83.003 28.4628 82.824 28.3004C82.6484 28.138 82.3783 28.0154 82.0137 27.9325L80.7211 27.6491C80.0085 27.4867 79.4815 27.2282 79.1401 26.8736C78.802 26.5189 78.633 26.0698 78.633 25.5263C78.633 25.0755 78.7589 24.6811 79.0108 24.343C79.2627 24.005 79.6107 23.7415 80.0549 23.5526C80.499 23.3603 81.0078 23.2642 81.5811 23.2642C82.4064 23.2642 83.056 23.4432 83.53 23.8011C84.004 24.1558 84.3172 24.6314 84.4696 25.228ZM91.9755 25.228L90.6282 25.4666C90.5719 25.2943 90.4824 25.1302 90.3597 24.9744C90.2404 24.8187 90.078 24.6911 89.8725 24.5916C89.667 24.4922 89.4102 24.4425 89.1019 24.4425C88.681 24.4425 88.3297 24.5369 88.0479 24.7259C87.7662 24.9115 87.6254 25.1518 87.6254 25.4467C87.6254 25.7019 87.7198 25.9074 87.9087 26.0632C88.0977 26.219 88.4026 26.3466 88.8235 26.446L90.0366 26.7244C90.7392 26.8868 91.2629 27.1371 91.6076 27.4751C91.9523 27.8132 92.1246 28.2524 92.1246 28.7926C92.1246 29.25 91.9921 29.6577 91.7269 30.0156C91.4651 30.3703 91.0988 30.6487 90.6282 30.8509C90.1609 31.053 89.619 31.1541 89.0025 31.1541C88.1474 31.1541 87.4497 30.9718 86.9094 30.6072C86.3692 30.2393 86.0378 29.7173 85.9151 29.0412L87.3519 28.8224C87.4414 29.197 87.6254 29.4804 87.9038 29.6726C88.1822 29.8615 88.5451 29.956 88.9925 29.956C89.4798 29.956 89.8692 29.8549 90.1609 29.6527C90.4525 29.4472 90.5984 29.197 90.5984 28.902C90.5984 28.6634 90.5089 28.4628 90.3299 28.3004C90.1542 28.138 89.8841 28.0154 89.5195 27.9325L88.2269 27.6491C87.5143 27.4867 86.9873 27.2282 86.646 26.8736C86.3079 26.5189 86.1388 26.0698 86.1388 25.5263C86.1388 25.0755 86.2648 24.6811 86.5167 24.343C86.7686 24.005 87.1166 23.7415 87.5607 23.5526C88.0049 23.3603 88.5136 23.2642 89.087 23.2642C89.9123 23.2642 90.5619 23.4432 91.0359 23.8011C91.5098 24.1558 91.823 24.6314 91.9755 25.228ZM93.7591 31V23.3636H95.2456V31H93.7591ZM94.5098 22.1854C94.2512 22.1854 94.0292 22.0992 93.8436 21.9268C93.6613 21.7512 93.5701 21.5424 93.5701 21.3004C93.5701 21.0552 93.6613 20.8464 93.8436 20.674C94.0292 20.4983 94.2512 20.4105 94.5098 20.4105C94.7683 20.4105 94.9887 20.4983 95.171 20.674C95.3566 20.8464 95.4494 21.0552 95.4494 21.3004C95.4494 21.5424 95.3566 21.7512 95.171 21.9268C94.9887 22.0992 94.7683 22.1854 94.5098 22.1854ZM100.447 34.0227C99.8406 34.0227 99.3185 33.9432 98.881 33.7841C98.4469 33.625 98.0922 33.4145 97.8171 33.1527C97.542 32.8909 97.3365 32.6042 97.2006 32.2926L98.4783 31.7656C98.5678 31.9115 98.6871 32.0656 98.8363 32.228C98.9888 32.3937 99.1942 32.5346 99.4528 32.6506C99.7146 32.7666 100.051 32.8246 100.462 32.8246C101.025 32.8246 101.491 32.687 101.859 32.4119C102.227 32.1402 102.411 31.706 102.411 31.1094V29.608H102.316C102.227 29.7704 102.098 29.951 101.929 30.1499C101.763 30.3487 101.534 30.5211 101.243 30.6669C100.951 30.8127 100.571 30.8857 100.104 30.8857C99.5008 30.8857 98.9573 30.7448 98.4734 30.4631C97.9928 30.178 97.6116 29.7588 97.3299 29.2053C97.0515 28.6484 96.9123 27.964 96.9123 27.152C96.9123 26.34 97.0498 25.6439 97.3249 25.0639C97.6033 24.4839 97.9845 24.0398 98.4684 23.7315C98.9523 23.42 99.5008 23.2642 100.114 23.2642C100.588 23.2642 100.971 23.3438 101.262 23.5028C101.554 23.6586 101.781 23.8409 101.944 24.0497C102.109 24.2585 102.237 24.4425 102.326 24.6016H102.436V23.3636H103.892V31.169C103.892 31.8253 103.74 32.3639 103.435 32.7848C103.13 33.2057 102.717 33.5173 102.197 33.7195C101.68 33.9216 101.097 34.0227 100.447 34.0227ZM100.432 29.6527C100.86 29.6527 101.221 29.5533 101.516 29.3544C101.814 29.1522 102.04 28.8639 102.192 28.4893C102.348 28.1115 102.426 27.6591 102.426 27.1321C102.426 26.6184 102.35 26.166 102.197 25.7749C102.045 25.3838 101.821 25.0788 101.526 24.8601C101.231 24.638 100.866 24.527 100.432 24.527C99.9847 24.527 99.6119 24.643 99.3136 24.875C99.0153 25.1037 98.7899 25.4152 98.6374 25.8097C98.4883 26.2041 98.4137 26.6449 98.4137 27.1321C98.4137 27.6326 98.4899 28.0717 98.6424 28.4496C98.7949 28.8274 99.0202 29.1224 99.3185 29.3345C99.6201 29.5466 99.9914 29.6527 100.432 29.6527ZM107.373 26.4659V31H105.886V23.3636H107.313V24.6065H107.407C107.583 24.2022 107.858 23.8774 108.233 23.6321C108.61 23.3868 109.086 23.2642 109.659 23.2642C110.18 23.2642 110.636 23.3736 111.027 23.5923C111.418 23.8078 111.721 24.1293 111.936 24.5568C112.152 24.9844 112.26 25.513 112.26 26.1428V31H110.773V26.3217C110.773 25.7682 110.629 25.3357 110.341 25.0241C110.052 24.7093 109.656 24.5518 109.152 24.5518C108.808 24.5518 108.501 24.6264 108.233 24.7756C107.967 24.9247 107.757 25.1435 107.601 25.4318C107.449 25.7169 107.373 26.0616 107.373 26.4659ZM114.253 31V23.3636H115.68V24.6065H115.775C115.934 24.1856 116.194 23.8575 116.555 23.6222C116.916 23.3835 117.349 23.2642 117.853 23.2642C118.363 23.2642 118.791 23.3835 119.135 23.6222C119.483 23.8608 119.74 24.1889 119.906 24.6065H119.985C120.168 24.1989 120.458 23.8741 120.855 23.6321C121.253 23.3868 121.727 23.2642 122.277 23.2642C122.97 23.2642 123.535 23.4813 123.973 23.9155C124.413 24.3497 124.634 25.0043 124.634 25.8793V31H123.147V26.0185C123.147 25.5014 123.007 25.1269 122.725 24.8949C122.443 24.6629 122.107 24.5469 121.716 24.5469C121.232 24.5469 120.855 24.696 120.587 24.9943C120.319 25.2893 120.184 25.6688 120.184 26.1328V31H118.703V25.924C118.703 25.5097 118.574 25.1766 118.315 24.9247C118.056 24.6728 117.72 24.5469 117.306 24.5469C117.024 24.5469 116.764 24.6214 116.525 24.7706C116.29 24.9164 116.099 25.1203 115.953 25.3821C115.811 25.6439 115.74 25.9472 115.74 26.2919V31H114.253ZM129.917 31.1541C129.165 31.1541 128.517 30.9934 127.974 30.6719C127.433 30.3471 127.016 29.8913 126.721 29.3047C126.429 28.7147 126.283 28.0237 126.283 27.2315C126.283 26.4493 126.429 25.7599 126.721 25.1634C127.016 24.5668 127.427 24.1011 127.954 23.7663C128.484 23.4316 129.104 23.2642 129.813 23.2642C130.244 23.2642 130.662 23.3355 131.066 23.478C131.47 23.6205 131.833 23.8442 132.155 24.1491C132.476 24.4541 132.73 24.8501 132.915 25.3374C133.101 25.8213 133.194 26.4096 133.194 27.1023V27.6293H127.123V26.5156H131.737C131.737 26.1245 131.657 25.7782 131.498 25.4766C131.339 25.1716 131.116 24.9313 130.827 24.7557C130.542 24.58 130.207 24.4922 129.823 24.4922C129.405 24.4922 129.041 24.5949 128.729 24.8004C128.421 25.0026 128.182 25.2678 128.013 25.5959C127.848 25.9207 127.765 26.2737 127.765 26.6548V27.5249C127.765 28.0353 127.854 28.4695 128.033 28.8274C128.215 29.1854 128.469 29.4588 128.794 29.6477C129.119 29.8333 129.498 29.9261 129.932 29.9261C130.214 29.9261 130.471 29.8864 130.703 29.8068C130.935 29.724 131.135 29.6013 131.305 29.4389C131.474 29.2765 131.603 29.076 131.692 28.8374L133.099 29.0909C132.987 29.5052 132.784 29.8681 132.493 30.1797C132.204 30.4879 131.841 30.7282 131.404 30.9006C130.97 31.0696 130.474 31.1541 129.917 31.1541ZM136.33 26.4659V31H134.843V23.3636H136.27V24.6065H136.364C136.54 24.2022 136.815 23.8774 137.19 23.6321C137.567 23.3868 138.043 23.2642 138.616 23.2642C139.137 23.2642 139.593 23.3736 139.984 23.5923C140.375 23.8078 140.678 24.1293 140.893 24.5568C141.109 24.9844 141.217 25.513 141.217 26.1428V31H139.73V26.3217C139.73 25.7682 139.586 25.3357 139.298 25.0241C139.009 24.7093 138.613 24.5518 138.109 24.5518C137.765 24.5518 137.458 24.6264 137.19 24.7756C136.924 24.9247 136.714 25.1435 136.558 25.4318C136.406 25.7169 136.33 26.0616 136.33 26.4659ZM146.775 23.3636V24.5568H142.604V23.3636H146.775ZM143.722 21.5341H145.209V28.7578C145.209 29.0462 145.252 29.2633 145.338 29.4091C145.424 29.5516 145.535 29.6494 145.671 29.7024C145.81 29.7521 145.961 29.777 146.124 29.777C146.243 29.777 146.347 29.7687 146.437 29.7521C146.526 29.7356 146.596 29.7223 146.646 29.7124L146.914 30.9403C146.828 30.9735 146.705 31.0066 146.546 31.0398C146.387 31.0762 146.188 31.0961 145.95 31.0994C145.558 31.1061 145.194 31.0365 144.856 30.8906C144.518 30.7448 144.244 30.5194 144.036 30.2145C143.827 29.9096 143.722 29.5268 143.722 29.0661V21.5341ZM155.967 20.8182V31H154.426V22.3594H154.366L151.93 23.9503V22.4787L154.471 20.8182H155.967ZM159.133 31.0945C158.861 31.0945 158.628 30.9983 158.432 30.8061C158.236 30.6106 158.139 30.3752 158.139 30.1001C158.139 29.8284 158.236 29.5964 158.432 29.4041C158.628 29.2086 158.861 29.1108 159.133 29.1108C159.405 29.1108 159.638 29.2086 159.834 29.4041C160.03 29.5964 160.127 29.8284 160.127 30.1001C160.127 30.2824 160.081 30.4498 159.988 30.6023C159.899 30.7514 159.779 30.8707 159.63 30.9602C159.481 31.0497 159.315 31.0945 159.133 31.0945ZM162.118 33.8636V23.3636H163.57V24.6016H163.694C163.781 24.4425 163.905 24.2585 164.067 24.0497C164.23 23.8409 164.455 23.6586 164.743 23.5028C165.032 23.3438 165.413 23.2642 165.887 23.2642C166.503 23.2642 167.054 23.42 167.537 23.7315C168.021 24.0431 168.401 24.4922 168.676 25.0788C168.954 25.6655 169.094 26.3714 169.094 27.1967C169.094 28.022 168.956 28.7296 168.681 29.3196C168.406 29.9062 168.028 30.3587 167.547 30.6768C167.067 30.9917 166.518 31.1491 165.902 31.1491C165.438 31.1491 165.058 31.0713 164.763 30.9155C164.472 30.7597 164.243 30.5774 164.077 30.3686C163.912 30.1598 163.784 29.9742 163.694 29.8118H163.605V33.8636H162.118ZM163.575 27.1818C163.575 27.7187 163.653 28.1894 163.809 28.5938C163.965 28.9981 164.19 29.3146 164.485 29.5433C164.78 29.7687 165.141 29.8814 165.569 29.8814C166.013 29.8814 166.384 29.7637 166.682 29.5284C166.981 29.2898 167.206 28.9666 167.358 28.5589C167.514 28.1513 167.592 27.6922 167.592 27.1818C167.592 26.678 167.516 26.2256 167.363 25.8246C167.214 25.4235 166.989 25.107 166.687 24.875C166.389 24.643 166.016 24.527 165.569 24.527C165.138 24.527 164.773 24.638 164.475 24.8601C164.18 25.0821 163.956 25.392 163.804 25.7898C163.651 26.1875 163.575 26.6515 163.575 27.1818ZM173.618 31.1491C173.001 31.1491 172.451 30.9917 171.967 30.6768C171.487 30.3587 171.109 29.9062 170.834 29.3196C170.562 28.7296 170.426 28.022 170.426 27.1967C170.426 26.3714 170.564 25.6655 170.839 25.0788C171.117 24.4922 171.498 24.0431 171.982 23.7315C172.466 23.42 173.015 23.2642 173.628 23.2642C174.102 23.2642 174.483 23.3438 174.771 23.5028C175.063 23.6586 175.288 23.8409 175.447 24.0497C175.61 24.2585 175.736 24.4425 175.825 24.6016H175.915V20.8182H177.401V31H175.949V29.8118H175.825C175.736 29.9742 175.606 30.1598 175.437 30.3686C175.272 30.5774 175.043 30.7597 174.751 30.9155C174.46 31.0713 174.082 31.1491 173.618 31.1491ZM173.946 29.8814C174.373 29.8814 174.735 29.7687 175.03 29.5433C175.328 29.3146 175.553 28.9981 175.706 28.5938C175.862 28.1894 175.939 27.7187 175.939 27.1818C175.939 26.6515 175.863 26.1875 175.711 25.7898C175.558 25.392 175.335 25.0821 175.04 24.8601C174.745 24.638 174.38 24.527 173.946 24.527C173.498 24.527 173.126 24.643 172.827 24.875C172.529 25.107 172.304 25.4235 172.151 25.8246C172.002 26.2256 171.927 26.678 171.927 27.1818C171.927 27.6922 172.004 28.1513 172.156 28.5589C172.309 28.9666 172.534 29.2898 172.832 29.5284C173.134 29.7637 173.505 29.8814 173.946 29.8814ZM183.157 23.3636V24.5568H178.842V23.3636H183.157ZM180.025 31V22.4787C180.025 22.0014 180.129 21.6053 180.338 21.2905C180.547 20.9723 180.824 20.7353 181.168 20.5795C181.513 20.4205 181.888 20.3409 182.292 20.3409C182.59 20.3409 182.845 20.3658 183.058 20.4155C183.27 20.4619 183.427 20.505 183.53 20.5447L183.182 21.7479C183.112 21.728 183.023 21.7048 182.913 21.6783C182.804 21.6484 182.671 21.6335 182.516 21.6335C182.154 21.6335 181.896 21.723 181.74 21.902C181.588 22.081 181.511 22.3395 181.511 22.6776V31H180.025Z" fill="#344054"/>
<path d="M69.054 51V50.1051L72.4148 46.4261C72.8092 45.9953 73.134 45.6207 73.3892 45.3026C73.6444 44.9811 73.8333 44.6795 73.956 44.3977C74.0819 44.1127 74.1449 43.8144 74.1449 43.5028C74.1449 43.1449 74.0587 42.835 73.8864 42.5732C73.7173 42.3113 73.4853 42.1091 73.1903 41.9666C72.8954 41.8241 72.5639 41.7528 72.196 41.7528C71.8049 41.7528 71.4635 41.834 71.1719 41.9964C70.8835 42.1555 70.6598 42.3793 70.5007 42.6676C70.3449 42.956 70.267 43.294 70.267 43.6818H69.0938C69.0938 43.0852 69.2313 42.5616 69.5064 42.1108C69.7815 41.66 70.156 41.3087 70.63 41.0568C71.1072 40.8049 71.6425 40.679 72.2358 40.679C72.8324 40.679 73.361 40.8049 73.8217 41.0568C74.2824 41.3087 74.6437 41.6484 74.9055 42.076C75.1674 42.5036 75.2983 42.9792 75.2983 43.5028C75.2983 43.8774 75.2304 44.2436 75.0945 44.6016C74.9619 44.9562 74.7299 45.3523 74.3984 45.7898C74.0703 46.224 73.6146 46.7543 73.0312 47.3807L70.7443 49.8267V49.9062H75.4773V51H69.054ZM80.8516 51.1392C80.1025 51.1392 79.4645 50.9354 78.9375 50.5277C78.4105 50.1167 78.0078 49.5218 77.7294 48.7429C77.451 47.9607 77.3118 47.0161 77.3118 45.9091C77.3118 44.8087 77.451 43.8691 77.7294 43.0902C78.0111 42.308 78.4155 41.7114 78.9425 41.3004C79.4728 40.8861 80.1091 40.679 80.8516 40.679C81.594 40.679 82.2287 40.8861 82.7557 41.3004C83.286 41.7114 83.6903 42.308 83.9688 43.0902C84.2505 43.8691 84.3913 44.8087 84.3913 45.9091C84.3913 47.0161 84.2521 47.9607 83.9737 48.7429C83.6953 49.5218 83.2926 50.1167 82.7656 50.5277C82.2386 50.9354 81.6006 51.1392 80.8516 51.1392ZM80.8516 50.0455C81.594 50.0455 82.1707 49.6875 82.5817 48.9716C82.9927 48.2557 83.1982 47.2348 83.1982 45.9091C83.1982 45.0275 83.1037 44.2768 82.9148 43.657C82.7292 43.0372 82.4607 42.5649 82.1094 42.2401C81.7614 41.9152 81.3421 41.7528 80.8516 41.7528C80.1158 41.7528 79.5407 42.1158 79.1264 42.8416C78.7121 43.5642 78.505 44.5866 78.505 45.9091C78.505 46.7907 78.5978 47.5398 78.7834 48.1562C78.969 48.7727 79.2358 49.2417 79.5838 49.5632C79.9351 49.8847 80.3577 50.0455 80.8516 50.0455ZM89.6016 51.1392C88.8525 51.1392 88.2145 50.9354 87.6875 50.5277C87.1605 50.1167 86.7578 49.5218 86.4794 48.7429C86.201 47.9607 86.0618 47.0161 86.0618 45.9091C86.0618 44.8087 86.201 43.8691 86.4794 43.0902C86.7611 42.308 87.1655 41.7114 87.6925 41.3004C88.2228 40.8861 88.8591 40.679 89.6016 40.679C90.344 40.679 90.9787 40.8861 91.5057 41.3004C92.036 41.7114 92.4403 42.308 92.7188 43.0902C93.0005 43.8691 93.1413 44.8087 93.1413 45.9091C93.1413 47.0161 93.0021 47.9607 92.7237 48.7429C92.4453 49.5218 92.0426 50.1167 91.5156 50.5277C90.9886 50.9354 90.3506 51.1392 89.6016 51.1392ZM89.6016 50.0455C90.344 50.0455 90.9207 49.6875 91.3317 48.9716C91.7427 48.2557 91.9482 47.2348 91.9482 45.9091C91.9482 45.0275 91.8537 44.2768 91.6648 43.657C91.4792 43.0372 91.2107 42.5649 90.8594 42.2401C90.5114 41.9152 90.0921 41.7528 89.6016 41.7528C88.8658 41.7528 88.2907 42.1158 87.8764 42.8416C87.4621 43.5642 87.255 44.5866 87.255 45.9091C87.255 46.7907 87.3478 47.5398 87.5334 48.1562C87.719 48.7727 87.9858 49.2417 88.3338 49.5632C88.6851 49.8847 89.1077 50.0455 89.6016 50.0455ZM99.147 51V40.8182H100.38V45.8693H100.499L105.073 40.8182H106.684L102.408 45.4119L106.684 51H105.192L101.653 46.267L100.38 47.6989V51H99.147ZM108.28 51V40.8182H111.839C112.549 40.8182 113.134 40.9408 113.594 41.1861C114.055 41.428 114.398 41.7545 114.624 42.1655C114.849 42.5732 114.962 43.0256 114.962 43.5227C114.962 43.9602 114.884 44.3215 114.728 44.6065C114.576 44.8916 114.373 45.117 114.121 45.2827C113.873 45.4484 113.603 45.571 113.311 45.6506V45.75C113.623 45.7699 113.936 45.8793 114.251 46.0781C114.566 46.277 114.829 46.562 115.041 46.9332C115.253 47.3045 115.359 47.7585 115.359 48.2955C115.359 48.8059 115.243 49.2649 115.011 49.6726C114.779 50.0803 114.413 50.4034 113.913 50.642C113.412 50.8807 112.761 51 111.959 51H108.28ZM109.513 49.9062H111.959C112.764 49.9062 113.336 49.7505 113.674 49.4389C114.015 49.1241 114.186 48.7429 114.186 48.2955C114.186 47.9508 114.098 47.6326 113.923 47.3409C113.747 47.0459 113.497 46.8106 113.172 46.6349C112.847 46.456 112.463 46.3665 112.018 46.3665H109.513V49.9062ZM109.513 45.2926H111.8C112.171 45.2926 112.506 45.2197 112.804 45.0739C113.106 44.928 113.344 44.7225 113.52 44.4574C113.699 44.1922 113.788 43.8807 113.788 43.5227C113.788 43.0753 113.633 42.6958 113.321 42.3842C113.009 42.0694 112.516 41.9119 111.839 41.9119H109.513V45.2926Z" fill="#475467"/>
</svg>
