<svg width="18" height="18" viewBox="0 0 18 18" fill="none" xmlns="http://www.w3.org/2000/svg">
<path d="M9 16.5601C8.775 16.5601 8.55 16.5076 8.3625 16.4026C6.96 15.6376 4.4925 14.8276 2.9475 14.6251L2.73 14.5951C1.7475 14.4751 0.9375 13.5526 0.9375 12.5551V3.49513C0.9375 2.90263 1.17 2.36263 1.5975 1.97263C2.025 1.58263 2.58 1.39513 3.165 1.44763C4.815 1.57513 7.305 2.40013 8.715 3.28513L8.895 3.39013C8.9475 3.42013 9.06 3.42013 9.105 3.39763L9.225 3.32263C10.635 2.43763 13.125 1.59763 14.7825 1.45513C14.7975 1.45513 14.8575 1.45513 14.8725 1.45513C15.42 1.40263 15.9825 1.59763 16.4025 1.98763C16.83 2.37763 17.0625 2.91763 17.0625 3.51013V12.5626C17.0625 13.5676 16.2525 14.4826 15.2625 14.6026L15.015 14.6326C13.47 14.8351 10.995 15.6526 9.6225 16.4101C9.4425 16.5151 9.225 16.5601 9 16.5601ZM2.985 2.56513C2.745 2.56513 2.5275 2.64763 2.355 2.80513C2.1675 2.97763 2.0625 3.22513 2.0625 3.49513V12.5551C2.0625 12.9976 2.445 13.4251 2.8725 13.4851L3.0975 13.5151C4.785 13.7401 7.3725 14.5876 8.8725 15.4051C8.94 15.4351 9.0375 15.4426 9.075 15.4276C10.575 14.5951 13.1775 13.7401 14.8725 13.5151L15.1275 13.4851C15.555 13.4326 15.9375 12.9976 15.9375 12.5551V3.50263C15.9375 3.22513 15.8325 2.98513 15.645 2.80513C15.45 2.63263 15.2025 2.55013 14.925 2.56513C14.91 2.56513 14.85 2.56513 14.835 2.56513C13.4025 2.69263 11.0925 3.46513 9.8325 4.25263L9.7125 4.33513C9.3 4.59013 8.715 4.59013 8.3175 4.34263L8.1375 4.23763C6.855 3.45013 4.545 2.68513 3.075 2.56513C3.045 2.56513 3.015 2.56513 2.985 2.56513Z" fill="#919191"/>
<path d="M9 15.9302C8.6925 15.9302 8.4375 15.6752 8.4375 15.3677V4.11768C8.4375 3.81018 8.6925 3.55518 9 3.55518C9.3075 3.55518 9.5625 3.81018 9.5625 4.11768V15.3677C9.5625 15.6827 9.3075 15.9302 9 15.9302Z" fill="#919191"/>
<path d="M5.8125 6.93018H4.125C3.8175 6.93018 3.5625 6.67518 3.5625 6.36768C3.5625 6.06018 3.8175 5.80518 4.125 5.80518H5.8125C6.12 5.80518 6.375 6.06018 6.375 6.36768C6.375 6.67518 6.12 6.93018 5.8125 6.93018Z" fill="#919191"/>
<path d="M6.375 9.18018H4.125C3.8175 9.18018 3.5625 8.92518 3.5625 8.61768C3.5625 8.31018 3.8175 8.05518 4.125 8.05518H6.375C6.6825 8.05518 6.9375 8.31018 6.9375 8.61768C6.9375 8.92518 6.6825 9.18018 6.375 9.18018Z" fill="#919191"/>
</svg>
