<svg width="24" height="23" viewBox="0 0 24 23" fill="none" xmlns="http://www.w3.org/2000/svg">
<path d="M8.38965 5.51025C7.99673 5.51025 7.6709 5.18442 7.6709 4.7915V1.9165C7.6709 1.52359 7.99673 1.19775 8.38965 1.19775C8.78257 1.19775 9.1084 1.52359 9.1084 1.9165V4.7915C9.1084 5.18442 8.78257 5.51025 8.38965 5.51025Z" fill="#919191"/>
<path d="M16.0557 5.51025C15.6627 5.51025 15.3369 5.18442 15.3369 4.7915V1.9165C15.3369 1.52359 15.6627 1.19775 16.0557 1.19775C16.4486 1.19775 16.7744 1.52359 16.7744 1.9165V4.7915C16.7744 5.18442 16.4486 5.51025 16.0557 5.51025Z" fill="#919191"/>
<path d="M20.3688 9.43018H4.07715C3.68423 9.43018 3.3584 9.10434 3.3584 8.71143C3.3584 8.31851 3.68423 7.99268 4.07715 7.99268H20.3688C20.7617 7.99268 21.0876 8.31851 21.0876 8.71143C21.0876 9.10434 20.7617 9.43018 20.3688 9.43018Z" fill="#919191"/>
<path d="M16.056 21.8019H8.38932C4.89141 21.8019 2.87891 19.7894 2.87891 16.2915V8.14567C2.87891 4.64775 4.89141 2.63525 8.38932 2.63525H16.056C19.5539 2.63525 21.5664 4.64775 21.5664 8.14567V16.2915C21.5664 19.7894 19.5539 21.8019 16.056 21.8019ZM8.38932 4.07275C5.64849 4.07275 4.31641 5.40484 4.31641 8.14567V16.2915C4.31641 19.0323 5.64849 20.3644 8.38932 20.3644H16.056C18.7968 20.3644 20.1289 19.0323 20.1289 16.2915V8.14567C20.1289 5.40484 18.7968 4.07275 16.056 4.07275H8.38932Z" fill="#919191"/>
<path d="M8.86849 13.8957C8.74391 13.8957 8.61932 13.8669 8.50432 13.819C8.38932 13.7711 8.28391 13.704 8.18808 13.6178C8.10183 13.5219 8.03473 13.4165 7.98681 13.3015C7.93889 13.1865 7.91016 13.0619 7.91016 12.9373C7.91016 12.6882 8.01558 12.439 8.18808 12.2569C8.28391 12.1707 8.38932 12.1036 8.50432 12.0557C8.67682 11.979 8.8685 11.9598 9.06017 11.9982C9.11767 12.0078 9.17516 12.0269 9.23266 12.0557C9.29016 12.0748 9.34765 12.1036 9.40515 12.1419C9.45307 12.1803 9.50098 12.2186 9.5489 12.2569C9.58723 12.3049 9.63514 12.3528 9.66389 12.4007C9.70223 12.4582 9.731 12.5157 9.75017 12.5732C9.77892 12.6307 9.79808 12.6882 9.80767 12.7457C9.81725 12.8128 9.82682 12.8703 9.82682 12.9373C9.82682 13.1865 9.7214 13.4357 9.5489 13.6178C9.36681 13.7903 9.11766 13.8957 8.86849 13.8957Z" fill="#919191"/>
<path d="M12.223 13.8956C11.9738 13.8956 11.7247 13.7902 11.5426 13.6177C11.5042 13.5697 11.4659 13.5218 11.4276 13.4739C11.3892 13.4164 11.3605 13.3589 11.3413 13.3014C11.3126 13.2439 11.2934 13.1864 11.2838 13.1289C11.2742 13.0619 11.2646 13.0043 11.2646 12.9373C11.2646 12.8127 11.2934 12.6881 11.3413 12.5731C11.3892 12.4581 11.4563 12.3527 11.5426 12.2568C11.8109 11.9885 12.2422 11.9022 12.5872 12.0556C12.7117 12.1035 12.8076 12.1706 12.9034 12.2568C13.0759 12.4389 13.1813 12.6881 13.1813 12.9373C13.1813 13.0043 13.1717 13.0619 13.1622 13.1289C13.1526 13.1864 13.1334 13.2439 13.1047 13.3014C13.0855 13.3589 13.0567 13.4164 13.0184 13.4739C12.9801 13.5218 12.9417 13.5697 12.9034 13.6177C12.8076 13.7039 12.7117 13.771 12.5872 13.8189C12.4722 13.8669 12.3476 13.8956 12.223 13.8956Z" fill="#919191"/>
<path d="M8.86849 17.2501C8.74391 17.2501 8.61932 17.2213 8.50432 17.1734C8.38932 17.1255 8.28391 17.0584 8.18808 16.9722C8.10183 16.8763 8.03473 16.7805 7.98681 16.6559C7.93889 16.5409 7.91016 16.4163 7.91016 16.2917C7.91016 16.0426 8.01558 15.7934 8.18808 15.6113C8.28391 15.5251 8.38932 15.458 8.50432 15.4101C8.8589 15.2567 9.28056 15.343 9.5489 15.6113C9.58723 15.6593 9.63514 15.7072 9.66389 15.7551C9.70223 15.8126 9.731 15.8701 9.75017 15.9276C9.77892 15.9851 9.79808 16.0426 9.80767 16.1097C9.81725 16.1672 9.82682 16.2342 9.82682 16.2917C9.82682 16.5409 9.7214 16.7901 9.5489 16.9722C9.36681 17.1447 9.11766 17.2501 8.86849 17.2501Z" fill="#919191"/>
</svg>
