<svg width="16" height="17" viewBox="0 0 16 17" fill="none" xmlns="http://www.w3.org/2000/svg">
<path d="M12.4666 6.96659L8.46659 10.9666C8.33325 11.0999 8.19992 11.1666 7.99992 11.1666C7.79992 11.1666 7.66659 11.0999 7.53325 10.9666L3.53325 6.96659C3.26659 6.69992 3.26659 6.29992 3.53325 6.03325C3.79992 5.76659 4.19992 5.76659 4.46659 6.03325L7.99992 9.56659L11.5333 6.03325C11.7999 5.76659 12.1999 5.76659 12.4666 6.03325C12.7333 6.29992 12.7333 6.69992 12.4666 6.96659Z" fill="black"/>
<mask id="mask0_56_3685" style="mask-type:luminance" maskUnits="userSpaceOnUse" x="3" y="5" width="10" height="7">
<path d="M12.4666 6.96659L8.46659 10.9666C8.33325 11.0999 8.19992 11.1666 7.99992 11.1666C7.79992 11.1666 7.66659 11.0999 7.53325 10.9666L3.53325 6.96659C3.26659 6.69992 3.26659 6.29992 3.53325 6.03325C3.79992 5.76659 4.19992 5.76659 4.46659 6.03325L7.99992 9.56659L11.5333 6.03325C11.7999 5.76659 12.1999 5.76659 12.4666 6.03325C12.7333 6.29992 12.7333 6.69992 12.4666 6.96659Z" fill="white"/>
</mask>
<g mask="url(#mask0_56_3685)">
<rect y="0.5" width="16" height="16" fill="#4B4B4B"/>
</g>
</svg>
