<svg width="23" height="23" viewBox="0 0 23 23" fill="none" xmlns="http://www.w3.org/2000/svg">
<path d="M11.5003 21.8019C5.81741 21.8019 1.19824 17.1828 1.19824 11.4998C1.19824 5.81692 5.81741 1.19775 11.5003 1.19775C17.1832 1.19775 21.8024 5.81692 21.8024 11.4998C21.8024 17.1828 17.1832 21.8019 11.5003 21.8019ZM11.5003 2.63525C6.61283 2.63525 2.63574 6.61234 2.63574 11.4998C2.63574 16.3873 6.61283 20.3644 11.5003 20.3644C16.3878 20.3644 20.3649 16.3873 20.3649 11.4998C20.3649 6.61234 16.3878 2.63525 11.5003 2.63525Z" fill="#919191"/>
<path d="M15.0557 15.2664C14.9311 15.2664 14.8065 15.2377 14.6915 15.161L11.7207 13.3881C10.9828 12.9473 10.4365 11.9793 10.4365 11.1264V7.19727C10.4365 6.80435 10.7624 6.47852 11.1553 6.47852C11.5482 6.47852 11.874 6.80435 11.874 7.19727V11.1264C11.874 11.4714 12.1615 11.9793 12.4586 12.1518L15.4294 13.9248C15.7744 14.126 15.8799 14.5668 15.6786 14.9118C15.5349 15.1418 15.2953 15.2664 15.0557 15.2664Z" fill="#919191"/>
</svg>
