<svg width="492" height="492" viewBox="0 0 492 492" fill="none" xmlns="http://www.w3.org/2000/svg">
<g filter="url(#filter0_d_147_6736)">
<path d="M353.079 81.6719C306.083 47.9207 225.858 39.1926 184.008 53.3031C108.536 78.7691 96.4325 128.254 97.2492 172.495C98.0659 216.736 154.774 254.728 169.868 293.399C184.963 332.07 212.643 384.055 266.104 368.134C319.564 352.213 317.272 294.649 333.468 255.781C349.665 216.913 392.026 177.061 389.723 141.381C388.12 116.466 373.842 96.6385 353.079 81.6719Z" fill="#C53F3F"/>
<path opacity="0.7" d="M353.079 81.6719C306.083 47.9207 225.858 39.1926 184.008 53.3031C108.536 78.7691 96.4325 128.254 97.2492 172.495C98.0659 216.736 154.774 254.728 169.868 293.399C184.963 332.07 212.643 384.055 266.104 368.134C319.564 352.213 317.272 294.649 333.468 255.781C349.665 216.913 392.026 177.061 389.723 141.381C388.12 116.466 373.842 96.6385 353.079 81.6719Z" fill="white"/>
<g filter="url(#filter1_d_147_6736)">
<path opacity="0.2" d="M224.942 114.843H95.6739C91.0275 114.843 87.2607 118.609 87.2607 123.256V216.539C87.2607 221.186 91.0275 224.952 95.6739 224.952H224.942C229.589 224.952 233.355 221.186 233.355 216.539V123.256C233.355 118.609 229.589 114.843 224.942 114.843Z" fill="black"/>
<path d="M221.321 109.047H92.0529C87.4064 109.047 83.6396 112.814 83.6396 117.46V210.743C83.6396 215.39 87.4064 219.156 92.0529 219.156H221.321C225.967 219.156 229.734 215.39 229.734 210.743V117.46C229.734 112.814 225.967 109.047 221.321 109.047Z" fill="white" stroke="#263238" stroke-linecap="round" stroke-linejoin="round"/>
<path d="M130.871 159.408L99.6393 169.543C96.9476 161.255 97.6579 152.236 101.614 144.472C105.57 136.707 112.449 130.831 120.736 128.137C124.002 127.043 127.427 126.498 130.871 126.523V159.408Z" fill="#C53F3F" stroke="#263238" stroke-linecap="round" stroke-linejoin="round"/>
<path d="M130.872 159.408L150.188 185.976C143.138 191.095 134.345 193.204 125.74 191.841C117.136 190.477 109.425 185.752 104.304 178.704C102.254 175.929 100.678 172.834 99.6396 169.543L130.872 159.408Z" fill="white" stroke="#263238" stroke-linecap="round" stroke-linejoin="round"/>
<path d="M130.872 159.408L162.124 149.253C164.35 155.842 164.392 162.973 162.246 169.588C160.099 176.203 155.878 181.95 150.208 185.976L130.872 159.408Z" fill="#263238" stroke="#263238" stroke-linecap="round" stroke-linejoin="round"/>
<path d="M130.872 159.408V126.543C137.831 126.464 144.63 128.63 150.26 132.722C155.89 136.813 160.05 142.61 162.124 149.253L130.872 159.408Z" fill="white" stroke="#263238" stroke-linecap="round" stroke-linejoin="round"/>
<path d="M130.92 179.875C142.235 179.875 151.407 170.703 151.407 159.388C151.407 148.074 142.235 138.901 130.92 138.901C119.606 138.901 110.434 148.074 110.434 159.388C110.434 170.703 119.606 179.875 130.92 179.875Z" fill="white" stroke="#263238" stroke-linecap="round" stroke-linejoin="round"/>
<path d="M218.005 124.535H172.987V128.265H218.005V124.535Z" fill="#C53F3F" stroke="#263238" stroke-linecap="round" stroke-linejoin="round"/>
<path d="M208.323 132.516H172.987V136.245H208.323V132.516Z" fill="#263238" stroke="#263238" stroke-linecap="round" stroke-linejoin="round"/>
<path d="M198.955 140.496H172.987V144.225H198.955V140.496Z" fill="white" stroke="#263238" stroke-linecap="round" stroke-linejoin="round"/>
<path d="M209.887 148.476H172.987V152.205H209.887V148.476Z" fill="#C53F3F" stroke="#263238" stroke-linecap="round" stroke-linejoin="round"/>
<path d="M190.522 156.456H172.987V160.185H190.522V156.456Z" fill="#263238" stroke="#263238" stroke-linecap="round" stroke-linejoin="round"/>
<path d="M218.005 164.446H172.987V168.176H218.005V164.446Z" fill="white" stroke="#263238" stroke-linecap="round" stroke-linejoin="round"/>
<path d="M206.138 172.426H172.987V176.156H206.138V172.426Z" fill="#C53F3F" stroke="#263238" stroke-linecap="round" stroke-linejoin="round"/>
<path d="M201.956 180.407H172.987V184.136H201.956V180.407Z" fill="#263238" stroke="#263238" stroke-linecap="round" stroke-linejoin="round"/>
<path d="M218.005 188.387H172.987V192.116H218.005V188.387Z" fill="white" stroke="#263238" stroke-linecap="round" stroke-linejoin="round"/>
<path d="M114.163 199.26H149.056" stroke="#263238" stroke-linecap="round" stroke-linejoin="round"/>
<path d="M109.224 204.18H153.996" stroke="#263238" stroke-linecap="round" stroke-linejoin="round"/>
<path d="M174.188 199.26H209.08" stroke="#263238" stroke-linecap="round" stroke-linejoin="round"/>
<path d="M169.248 204.18H214.02" stroke="#263238" stroke-linecap="round" stroke-linejoin="round"/>
<path opacity="0.2" d="M225.661 270.875H114.646C109.999 270.875 106.232 274.642 106.232 279.289V358.816C106.232 363.462 109.999 367.229 114.646 367.229H225.661C230.307 367.229 234.074 363.462 234.074 358.816V279.289C234.074 274.642 230.307 270.875 225.661 270.875Z" fill="black"/>
<path d="M221.311 265.818H110.296C105.65 265.818 101.883 269.585 101.883 274.231V353.758C101.883 358.404 105.65 362.171 110.296 362.171H221.311C225.957 362.171 229.724 358.404 229.724 353.758V274.231C229.724 269.585 225.957 265.818 221.311 265.818Z" fill="white" stroke="#263238" stroke-linecap="round" stroke-linejoin="round"/>
<path d="M110.641 311.623H127.693" stroke="#263238" stroke-linecap="round" stroke-linejoin="round"/>
<path d="M110.641 315.48H137.612" stroke="#263238" stroke-linecap="round" stroke-linejoin="round"/>
<path d="M110.641 319.328H127.693" stroke="#263238" stroke-linecap="round" stroke-linejoin="round"/>
<path d="M110.641 323.175H135.241" stroke="#263238" stroke-linecap="round" stroke-linejoin="round"/>
<path d="M110.641 327.033H127.693" stroke="#263238" stroke-linecap="round" stroke-linejoin="round"/>
<path d="M110.641 330.88H140.771" stroke="#263238" stroke-linecap="round" stroke-linejoin="round"/>
<path d="M153.347 311.623H170.399" stroke="#263238" stroke-linecap="round" stroke-linejoin="round"/>
<path d="M153.347 315.48H180.318" stroke="#263238" stroke-linecap="round" stroke-linejoin="round"/>
<path d="M153.347 319.328H170.399" stroke="#263238" stroke-linecap="round" stroke-linejoin="round"/>
<path d="M153.347 323.175H177.947" stroke="#263238" stroke-linecap="round" stroke-linejoin="round"/>
<path d="M153.347 327.033H170.399" stroke="#263238" stroke-linecap="round" stroke-linejoin="round"/>
<path d="M153.347 330.88H183.477" stroke="#263238" stroke-linecap="round" stroke-linejoin="round"/>
<path d="M196.052 311.623H213.104" stroke="#263238" stroke-linecap="round" stroke-linejoin="round"/>
<path d="M196.052 315.48H223.013" stroke="#263238" stroke-linecap="round" stroke-linejoin="round"/>
<path d="M196.052 319.328H213.104" stroke="#263238" stroke-linecap="round" stroke-linejoin="round"/>
<path d="M196.052 323.175H220.642" stroke="#263238" stroke-linecap="round" stroke-linejoin="round"/>
<path d="M196.052 327.033H213.104" stroke="#263238" stroke-linecap="round" stroke-linejoin="round"/>
<path d="M196.052 330.88H226.182" stroke="#263238" stroke-linecap="round" stroke-linejoin="round"/>
<path d="M142.552 298.969H109.549V305.571H142.552V298.969Z" fill="#263238"/>
<path d="M186.005 298.969H153.002V305.571H186.005V298.969Z" fill="#263238"/>
<path d="M229.458 298.969H196.455V305.571H229.458V298.969Z" fill="#263238"/>
<path d="M147.698 298.585V331.992" stroke="#263238" stroke-linecap="round" stroke-linejoin="round"/>
<path d="M190.797 298.585V331.992" stroke="#263238" stroke-linecap="round" stroke-linejoin="round"/>
<path d="M123 283.323L130.143 281.001C130.602 282.413 130.631 283.929 130.228 285.358C129.824 286.787 129.006 288.064 127.877 289.028C126.748 289.992 125.359 290.6 123.885 290.774C122.41 290.949 120.917 290.682 119.594 290.008C118.272 289.335 117.178 288.284 116.452 286.989C115.727 285.693 115.401 284.212 115.517 282.732C115.633 281.252 116.185 279.84 117.104 278.673C118.022 277.507 119.266 276.639 120.677 276.179C121.426 275.931 122.211 275.808 123 275.815V283.323Z" fill="#C53F3F" stroke="#263238" stroke-width="0.5" stroke-miterlimit="10"/>
<path d="M123 283.323V275.815C124.59 275.796 126.144 276.29 127.431 277.224C128.718 278.159 129.67 279.483 130.144 281.001L123 283.323Z" fill="#263238" stroke="#263238" stroke-width="0.5" stroke-miterlimit="10"/>
<path d="M195.324 283.323L202.468 281.001C202.927 282.413 202.956 283.93 202.553 285.36C202.15 286.789 201.332 288.067 200.203 289.031C199.073 289.995 197.683 290.603 196.208 290.777C194.733 290.951 193.24 290.684 191.917 290.01C190.594 289.335 189.5 288.283 188.775 286.987C188.05 285.691 187.726 284.209 187.843 282.729C187.96 281.248 188.514 279.836 189.434 278.67C190.354 277.504 191.599 276.637 193.011 276.179C193.757 275.931 194.538 275.808 195.324 275.815V283.323Z" fill="#C53F3F" stroke="#263238" stroke-width="0.5" stroke-miterlimit="10"/>
<path d="M195.323 283.323V275.815C196.914 275.794 198.469 276.288 199.756 277.222C201.043 278.157 201.994 279.482 202.467 281.001L195.323 283.323Z" fill="#263238" stroke="#263238" stroke-width="0.5" stroke-miterlimit="10"/>
<path d="M147.127 283.323V290.831C145.136 290.831 143.226 290.04 141.818 288.632C140.41 287.224 139.619 285.315 139.619 283.323C139.619 281.332 140.41 279.422 141.818 278.014C143.226 276.606 145.136 275.815 147.127 275.815V283.323Z" fill="#C53F3F" stroke="#263238" stroke-width="0.5" stroke-miterlimit="10"/>
<path d="M147.127 283.323V275.815C149.118 275.815 151.028 276.606 152.436 278.014C153.844 279.422 154.635 281.332 154.635 283.323C154.635 285.315 153.844 287.224 152.436 288.632C151.028 290.04 149.118 290.831 147.127 290.831V283.323Z" fill="#263238" stroke="#263238" stroke-width="0.5" stroke-miterlimit="10"/>
<path d="M171.216 283.323L178.36 285.646C178.055 286.584 177.568 287.453 176.927 288.203C176.287 288.953 175.504 289.569 174.625 290.017C173.746 290.465 172.788 290.735 171.804 290.812C170.821 290.889 169.832 290.772 168.894 290.467C167.956 290.162 167.087 289.676 166.337 289.035C165.587 288.394 164.97 287.612 164.522 286.733C164.075 285.854 163.804 284.895 163.727 283.912C163.65 282.928 163.767 281.939 164.072 281.001C164.546 279.483 165.498 278.159 166.785 277.224C168.072 276.29 169.626 275.796 171.216 275.815V283.323Z" fill="#C53F3F" stroke="#263238" stroke-width="0.5" stroke-miterlimit="10"/>
<path d="M171.216 283.323V275.815C172.203 275.814 173.18 276.007 174.092 276.384C175.004 276.761 175.833 277.314 176.531 278.011C177.229 278.708 177.783 279.536 178.161 280.448C178.539 281.359 178.734 282.337 178.734 283.323C178.738 284.113 178.611 284.897 178.36 285.646L171.216 283.323Z" fill="#263238" stroke="#263238" stroke-width="0.5" stroke-miterlimit="10"/>
<path d="M219.432 283.323L226.576 285.646C226.271 286.584 225.784 287.453 225.143 288.203C224.502 288.953 223.72 289.569 222.841 290.017C221.962 290.465 221.004 290.735 220.02 290.812C219.037 290.889 218.048 290.772 217.109 290.467C216.171 290.162 215.302 289.676 214.552 289.035C213.802 288.394 213.186 287.612 212.738 286.733C212.29 285.854 212.02 284.895 211.943 283.912C211.866 282.928 211.983 281.939 212.288 281.001C212.762 279.483 213.713 278.159 215 277.224C216.287 276.29 217.842 275.796 219.432 275.815V283.323Z" fill="#C53F3F" stroke="#263238" stroke-width="0.5" stroke-miterlimit="10"/>
<path d="M219.432 283.323V275.815C220.418 275.814 221.395 276.007 222.306 276.384C223.218 276.761 224.046 277.314 224.743 278.012C225.441 278.709 225.994 279.537 226.371 280.449C226.748 281.36 226.941 282.337 226.94 283.323C226.947 284.112 226.824 284.897 226.575 285.646L219.432 283.323Z" fill="#263238" stroke="#263238" stroke-width="0.5" stroke-miterlimit="10"/>
<path d="M220.908 351.485H214.335V353.709H220.908V351.485Z" fill="#C53F3F" stroke="#263238" stroke-width="0.75" stroke-linecap="round" stroke-linejoin="round"/>
<path d="M213.606 340.375H207.033V353.709H213.606V340.375Z" fill="#263238" stroke="#263238" stroke-width="0.75" stroke-linecap="round" stroke-linejoin="round"/>
<path d="M206.315 345.167H199.742V353.718H206.315V345.167Z" fill="white" stroke="#263238" stroke-width="0.75" stroke-linecap="round" stroke-linejoin="round"/>
<path d="M199.014 338.496H192.44V353.709H199.014V338.496Z" fill="#C53F3F" stroke="#263238" stroke-width="0.75" stroke-linecap="round" stroke-linejoin="round"/>
<path d="M191.713 349.783H185.14V353.719H191.713V349.783Z" fill="#263238" stroke="#263238" stroke-width="0.75" stroke-linecap="round" stroke-linejoin="round"/>
<path d="M184.411 348.582H177.838V353.709H184.411V348.582Z" fill="white" stroke="#263238" stroke-width="0.75" stroke-linecap="round" stroke-linejoin="round"/>
<path d="M177.11 343.456H170.537V353.719H177.11V343.456Z" fill="#C53F3F" stroke="#263238" stroke-width="0.75" stroke-linecap="round" stroke-linejoin="round"/>
<path d="M169.808 352.006H163.235V353.718H169.808V352.006Z" fill="#263238" stroke="#263238" stroke-width="0.75" stroke-linecap="round" stroke-linejoin="round"/>
<path d="M162.508 340.375H155.935V353.709H162.508V340.375Z" fill="white" stroke="#263238" stroke-width="0.75" stroke-linecap="round" stroke-linejoin="round"/>
<path d="M155.206 342.944H148.633V353.719H155.206V342.944Z" fill="#C53F3F" stroke="#263238" stroke-width="0.75" stroke-linecap="round" stroke-linejoin="round"/>
<path d="M147.915 353.197H141.342V353.709H147.915V353.197Z" fill="#263238" stroke="#263238" stroke-width="0.75" stroke-linecap="round" stroke-linejoin="round"/>
<path d="M140.613 353.03H134.04V353.709H140.613V353.03Z" fill="white" stroke="#263238" stroke-width="0.75" stroke-linecap="round" stroke-linejoin="round"/>
<path d="M133.312 345.167H126.739V353.718H133.312V345.167Z" fill="#C53F3F" stroke="#263238" stroke-width="0.75" stroke-linecap="round" stroke-linejoin="round"/>
<path d="M126.011 352.006H119.438V353.718H126.011V352.006Z" fill="#263238" stroke="#263238" stroke-width="0.75" stroke-linecap="round" stroke-linejoin="round"/>
<path d="M118.71 350.294H112.137V353.719H118.71V350.294Z" fill="white" stroke="#263238" stroke-width="0.75" stroke-linecap="round" stroke-linejoin="round"/>
<path opacity="0.2" d="M398.47 187.452H269.202C264.556 187.452 260.789 191.219 260.789 195.865V289.149C260.789 293.795 264.556 297.562 269.202 297.562H398.47C403.117 297.562 406.884 293.795 406.884 289.149V195.865C406.884 191.219 403.117 187.452 398.47 187.452Z" fill="black"/>
<path d="M393.403 181.666H264.135C259.488 181.666 255.722 185.433 255.722 190.079V283.362C255.722 288.009 259.488 291.776 264.135 291.776H393.403C398.049 291.776 401.816 288.009 401.816 283.362V190.079C401.816 185.433 398.049 181.666 393.403 181.666Z" fill="white" stroke="#263238" stroke-linecap="round" stroke-linejoin="round"/>
<path d="M392.616 267.815H385.039V276.219H392.616V267.815Z" fill="#C53F3F" stroke="#263238" stroke-width="0.75" stroke-linecap="round" stroke-linejoin="round"/>
<path d="M384.193 225.799H376.616V276.209H384.193V225.799Z" fill="#263238" stroke="#263238" stroke-width="0.75" stroke-linecap="round" stroke-linejoin="round"/>
<path d="M375.769 243.904H368.192V276.219H375.769V243.904Z" fill="white" stroke="#263238" stroke-width="0.75" stroke-linecap="round" stroke-linejoin="round"/>
<path d="M367.356 218.694H359.779V276.219H367.356V218.694Z" fill="#C53F3F" stroke="#263238" stroke-width="0.75" stroke-linecap="round" stroke-linejoin="round"/>
<path d="M358.933 261.351H351.356V276.219H358.933V261.351Z" fill="#263238" stroke="#263238" stroke-width="0.75" stroke-linecap="round" stroke-linejoin="round"/>
<path d="M350.51 256.824H342.934V276.209H350.51V256.824Z" fill="white" stroke="#263238" stroke-width="0.75" stroke-linecap="round" stroke-linejoin="round"/>
<path d="M342.097 237.439H334.521V276.219H342.097V237.439Z" fill="#C53F3F" stroke="#263238" stroke-width="0.75" stroke-linecap="round" stroke-linejoin="round"/>
<path d="M333.674 269.754H326.098V276.219H333.674V269.754Z" fill="#263238" stroke="#263238" stroke-width="0.75" stroke-linecap="round" stroke-linejoin="round"/>
<path d="M325.251 225.799H317.674V276.209H325.251V225.799Z" fill="white" stroke="#263238" stroke-width="0.75" stroke-linecap="round" stroke-linejoin="round"/>
<path d="M316.838 235.501H309.261V276.219H316.838V235.501Z" fill="#C53F3F" stroke="#263238" stroke-width="0.75" stroke-linecap="round" stroke-linejoin="round"/>
<path d="M308.415 274.271H300.838V276.209H308.415V274.271Z" fill="#263238" stroke="#263238" stroke-width="0.75" stroke-linecap="round" stroke-linejoin="round"/>
<path d="M299.992 273.631H292.415V276.219H299.992V273.631Z" fill="white" stroke="#263238" stroke-width="0.75" stroke-linecap="round" stroke-linejoin="round"/>
<path d="M291.569 243.904H283.992V276.219H291.569V243.904Z" fill="#C53F3F" stroke="#263238" stroke-width="0.75" stroke-linecap="round" stroke-linejoin="round"/>
<path d="M283.156 269.754H275.579V276.219H283.156V269.754Z" fill="#263238" stroke="#263238" stroke-width="0.75" stroke-linecap="round" stroke-linejoin="round"/>
<path d="M274.732 263.289H267.155V276.219H274.732V263.289Z" fill="white" stroke="#263238" stroke-width="0.75" stroke-linecap="round" stroke-linejoin="round"/>
<path d="M393.108 204.672H268.14V211.068H393.108V204.672Z" fill="#C53F3F" stroke="#263238" stroke-miterlimit="10"/>
<path d="M321.335 205.135H301.064V210.596H321.335V205.135Z" fill="#263238" stroke="#263238" stroke-miterlimit="10"/>
<path d="M360.222 205.135H322.151V210.596H360.222V205.135Z" fill="white" stroke="#263238" stroke-miterlimit="10"/>
<path opacity="0.2" d="M382.529 68.4966H281.138C276.491 68.4966 272.725 72.2633 272.725 76.9098V149.185C272.725 153.831 276.491 157.598 281.138 157.598H382.529C387.176 157.598 390.942 153.831 390.942 149.185V76.9098C390.942 72.2633 387.176 68.4966 382.529 68.4966Z" fill="black"/>
<path d="M378.181 62.7104H276.789C272.143 62.7104 268.376 66.4772 268.376 71.1236V143.398C268.376 148.045 272.143 151.812 276.789 151.812H378.181C382.827 151.812 386.594 148.045 386.594 143.398V71.1236C386.594 66.4772 382.827 62.7104 378.181 62.7104Z" fill="white" stroke="#263238" stroke-linecap="round" stroke-linejoin="round"/>
<path d="M273.866 143.467H384.861" stroke="#263238" stroke-width="0.5" stroke-miterlimit="10"/>
<path d="M273.866 143.467V145.111" stroke="#263238" stroke-width="0.5" stroke-miterlimit="10"/>
<path d="M281.267 143.467V145.111" stroke="#263238" stroke-width="0.5" stroke-miterlimit="10"/>
<path d="M288.666 143.467V145.111" stroke="#263238" stroke-width="0.5" stroke-miterlimit="10"/>
<path d="M296.065 143.467V145.111" stroke="#263238" stroke-width="0.5" stroke-miterlimit="10"/>
<path d="M303.465 143.467V145.111" stroke="#263238" stroke-width="0.5" stroke-miterlimit="10"/>
<path d="M310.865 143.467V145.111" stroke="#263238" stroke-width="0.5" stroke-miterlimit="10"/>
<path d="M318.265 143.467V145.111" stroke="#263238" stroke-width="0.5" stroke-miterlimit="10"/>
<path d="M325.664 143.467V145.111" stroke="#263238" stroke-width="0.5" stroke-miterlimit="10"/>
<path d="M333.064 143.467V145.111" stroke="#263238" stroke-width="0.5" stroke-miterlimit="10"/>
<path d="M340.464 143.467V145.111" stroke="#263238" stroke-width="0.5" stroke-miterlimit="10"/>
<path d="M347.863 143.467V145.111" stroke="#263238" stroke-width="0.5" stroke-miterlimit="10"/>
<path d="M355.263 143.467V145.111" stroke="#263238" stroke-width="0.5" stroke-miterlimit="10"/>
<path d="M362.663 143.467V145.111" stroke="#263238" stroke-width="0.5" stroke-miterlimit="10"/>
<path d="M370.062 143.467V145.111" stroke="#263238" stroke-width="0.5" stroke-miterlimit="10"/>
<path d="M377.462 143.467V145.111" stroke="#263238" stroke-width="0.5" stroke-miterlimit="10"/>
<path d="M384.861 143.467V145.111" stroke="#263238" stroke-width="0.5" stroke-miterlimit="10"/>
<path d="M277.566 142.129H381.162V127.812L373.831 113.642C373.784 113.543 373.751 113.437 373.733 113.328L367.219 71.3009C367.219 71.0921 367.136 70.8919 366.988 70.7442C366.84 70.5966 366.64 70.5137 366.431 70.5137C366.223 70.5137 366.022 70.5966 365.875 70.7442C365.727 70.8919 365.644 71.0921 365.644 71.3009L359.012 122.607C358.981 122.852 358.858 123.077 358.668 123.236L352.282 128.156C352.189 128.225 352.083 128.271 351.97 128.292C351.857 128.313 351.741 128.307 351.631 128.276C351.52 128.244 351.419 128.188 351.334 128.111C351.249 128.034 351.182 127.938 351.14 127.832L344.705 114.558C344.657 114.433 344.577 114.324 344.472 114.241C344.367 114.159 344.242 114.106 344.11 114.089C343.978 114.072 343.844 114.091 343.721 114.144C343.599 114.197 343.493 114.282 343.416 114.39L336.764 123L329.364 132.545L321.965 123L315.441 114.587C315.355 114.469 315.237 114.379 315.101 114.328C314.965 114.276 314.817 114.266 314.675 114.297C314.533 114.328 314.403 114.4 314.301 114.504C314.2 114.608 314.131 114.74 314.102 114.882L307.214 136.363L299.815 98.0755L292.415 140.181L285.015 134.454L279.111 117.824C278.777 116.84 277.576 117.155 277.576 118.179L277.566 142.129Z" fill="#C53F3F"/>
<path d="M381.162 142.159H277.566V129.888L284.887 117.706C284.939 117.622 284.972 117.528 284.986 117.431L291.5 81.2885C291.536 81.1046 291.634 80.9388 291.779 80.8196C291.923 80.7004 292.105 80.6353 292.292 80.6353C292.479 80.6353 292.661 80.7004 292.805 80.8196C292.95 80.9388 293.048 81.1046 293.084 81.2885L299.706 125.411C299.748 125.631 299.876 125.826 300.061 125.952L306.447 130.203C306.538 130.265 306.642 130.306 306.751 130.326C306.859 130.345 306.971 130.342 307.078 130.316C307.185 130.29 307.286 130.242 307.374 130.175C307.462 130.109 307.535 130.024 307.588 129.928L314.014 118.513C314.076 118.403 314.164 118.309 314.27 118.239C314.376 118.17 314.497 118.126 314.623 118.113C314.749 118.1 314.876 118.116 314.995 118.162C315.113 118.208 315.219 118.281 315.303 118.375L321.965 125.755L329.364 133.962L336.764 125.755L343.278 118.523C343.371 118.422 343.488 118.346 343.618 118.302C343.749 118.259 343.888 118.25 344.023 118.276C344.158 118.301 344.285 118.361 344.39 118.449C344.495 118.537 344.577 118.651 344.626 118.779L351.514 137.249H358.914L366.313 140.535L373.713 135.615L379.617 121.318C379.682 121.139 379.809 120.99 379.975 120.897C380.14 120.804 380.334 120.773 380.52 120.81C380.706 120.847 380.873 120.949 380.991 121.098C381.109 121.247 381.169 121.433 381.162 121.623V142.159Z" fill="#263238"/>
<path d="M333.664 74.5874H356.591" stroke="#263238" stroke-linecap="round" stroke-linejoin="round"/>
<path d="M333.664 79.96H356.591" stroke="#263238" stroke-linecap="round" stroke-linejoin="round"/>
<path d="M333.664 85.3228H356.591" stroke="#263238" stroke-linecap="round" stroke-linejoin="round"/>
<path d="M333.664 90.6953H356.591" stroke="#263238" stroke-linecap="round" stroke-linejoin="round"/>
<path d="M333.664 96.0581H356.591" stroke="#263238" stroke-linecap="round" stroke-linejoin="round"/>
<path d="M333.664 101.431H356.591" stroke="#263238" stroke-linecap="round" stroke-linejoin="round"/>
<path d="M328.449 74.5874H331.322" stroke="#263238" stroke-linecap="round" stroke-linejoin="round"/>
<path d="M328.449 79.96H331.322" stroke="#263238" stroke-linecap="round" stroke-linejoin="round"/>
<path d="M328.449 85.3228H331.322" stroke="#263238" stroke-linecap="round" stroke-linejoin="round"/>
<path d="M328.449 90.6953H331.322" stroke="#263238" stroke-linecap="round" stroke-linejoin="round"/>
<path d="M328.449 96.0581H331.322" stroke="#263238" stroke-linecap="round" stroke-linejoin="round"/>
<path d="M328.449 101.431H331.322" stroke="#263238" stroke-linecap="round" stroke-linejoin="round"/>
</g>
<path d="M243.54 440.832C275.842 440.832 302.029 427.836 302.029 411.804C302.029 395.772 275.842 382.776 243.54 382.776C211.237 382.776 185.051 395.772 185.051 411.804C185.051 427.836 211.237 440.832 243.54 440.832Z" fill="#C53F3F"/>
<path opacity="0.5" d="M243.54 440.832C275.842 440.832 302.029 427.836 302.029 411.804C302.029 395.772 275.842 382.776 243.54 382.776C211.237 382.776 185.051 395.772 185.051 411.804C185.051 427.836 211.237 440.832 243.54 440.832Z" fill="white"/>
<path d="M223.89 192.982C223.89 192.982 208.874 246.541 208.874 250.664C208.874 254.177 213.794 261.193 219.226 258.379C224.657 255.564 225.887 246.807 225.887 246.807L223.89 192.982Z" fill="white" stroke="#263238" stroke-linecap="round" stroke-linejoin="round"/>
<path d="M264.056 412.375C264.056 412.375 256.371 422.756 255.791 427.135C255.21 431.513 261.153 431.858 263.771 429.821C266.388 427.784 271.84 414.5 271.84 414.5L264.056 412.375Z" fill="white" stroke="#263238" stroke-linecap="round" stroke-linejoin="round"/>
<path d="M222.119 387.381C222.119 387.381 208.963 392.911 208.963 396.07C208.963 399.228 215.802 398.431 220.771 396.591C225.74 394.751 233.661 391.592 233.661 391.592C233.661 391.592 226.065 386.594 222.119 387.381Z" fill="white" stroke="#263238" stroke-linecap="round" stroke-linejoin="round"/>
<path d="M226.241 262.413L225.799 279.515C225.799 279.515 222.384 310.826 220.8 327.672C219.216 344.518 224.224 383.189 224.224 383.189L221.853 385.551V387.922L233.661 391.602C234.187 389.174 234.539 386.711 234.714 384.232V380.296L247.083 306.368C247.083 306.368 256.814 381.093 258.399 389.772C259.983 398.451 262.335 407.661 262.335 407.661L261.547 410.289L262.59 415.031L270.748 417.137C272.126 415.008 272.942 412.563 273.119 410.033C273.641 405.29 273.906 394.24 273.906 394.24C273.906 394.24 273.385 355.864 275.225 329.788C276.321 313.75 276.143 297.65 274.694 281.64L273.385 264.283C257.996 269.621 241.159 268.953 226.241 262.413Z" fill="#263238" stroke="#263238" stroke-linecap="round" stroke-linejoin="round"/>
<path d="M247.112 306.349L245.794 296.617L240.539 291.097" stroke="white" stroke-linecap="round" stroke-linejoin="round"/>
<path d="M265.533 271.889C265.533 271.889 261.843 278.728 271.84 281.887" stroke="white" stroke-linecap="round" stroke-linejoin="round"/>
<path d="M271.84 285.045V406.589" stroke="white" stroke-linecap="round" stroke-linejoin="round"/>
<path d="M238.689 273.463L239.742 279.781C239.742 279.781 237.115 284.514 238.168 286.619" stroke="white" stroke-linecap="round" stroke-linejoin="round"/>
<path d="M243.963 186.153C243.963 186.153 224.234 191.929 223.89 192.982C223.545 194.035 226.242 262.413 226.242 262.413C226.242 262.413 231.506 270.482 245.922 271.712C260.337 272.942 273.985 265.395 273.985 265.395L283.392 203.137C283.392 203.137 260.76 187.698 259.186 187.344C257.611 186.99 248.352 184.923 243.963 186.153Z" fill="white" stroke="#263238" stroke-linecap="round" stroke-linejoin="round"/>
<path d="M242.605 199.299L247.289 210.793L255.299 201.72C255.299 201.72 254.699 195.973 249.395 195.373C247.984 195.145 246.538 195.411 245.3 196.126C244.063 196.842 243.111 197.963 242.605 199.299Z" fill="#263238" stroke="#263238" stroke-linecap="round" stroke-linejoin="round"/>
<path d="M243.963 186.153L235.648 199.299C235.648 199.299 240.49 198.089 242.753 200.057C245.016 202.025 247.594 204.141 247.594 204.141C247.594 204.141 251.53 200.962 254.699 202.025C256.868 202.823 258.905 203.945 260.74 205.351C260.74 205.351 262.708 192.352 260.14 186.458C257.572 180.564 249.405 178.438 243.963 186.153Z" fill="white" stroke="#263238" stroke-linecap="round" stroke-linejoin="round"/>
<path d="M246.079 187.658C245.826 191.484 245.777 195.321 245.932 199.152C246.227 203.993 247.742 205.056 249.553 201.877C251.363 198.699 255.457 189.026 255.457 186.301C255.463 184.584 255.562 182.87 255.752 181.164C255.752 181.164 249.405 187.944 246.079 187.658Z" fill="white" stroke="#263238" stroke-linecap="round" stroke-linejoin="round"/>
<path d="M247.289 210.792L239.427 250.851L244.721 264.155L251.225 253.272L247.289 210.792Z" fill="#263238" stroke="#263238" stroke-linecap="round" stroke-linejoin="round"/>
<path d="M262.728 247.328C262.728 247.328 245.016 236.632 243.442 235.235C241.867 233.838 241.857 234.881 240.627 235.58C239.397 236.278 234.842 241.72 233.966 243.452C233.09 245.183 231.683 247.663 233.444 248.017C235.206 248.372 236.603 245.065 236.603 244.504C236.603 243.944 239.23 241.001 239.23 241.001C239.23 241.001 236.603 247.309 237.479 247.84C238.354 248.372 244.317 250.792 245.547 250.792C246.777 250.792 247.643 248.509 247.643 248.509C247.643 248.509 249.405 250.792 251.156 250.615C252.209 250.499 253.22 250.138 254.108 249.562L260.071 254.295L262.728 247.328Z" fill="white" stroke="#263238" stroke-linecap="round" stroke-linejoin="round"/>
<path d="M262.728 247.328C262.728 247.328 260.524 246 257.611 244.219L255.014 250.31L260.101 254.344L262.728 247.328Z" fill="white" stroke="#263238" stroke-linecap="round" stroke-linejoin="round"/>
<path d="M239.742 249.09C239.742 249.09 240.274 243.471 242.556 240.312" stroke="#263238" stroke-linecap="round" stroke-linejoin="round"/>
<path d="M242.724 249.788C242.724 249.788 243.954 244.868 246.414 242.074" stroke="#263238" stroke-linecap="round" stroke-linejoin="round"/>
<path d="M276.051 206.296C271.844 210.016 268.951 214.996 267.805 220.495L278.856 251.904C278.856 251.904 265.7 246.463 264.096 246.295C262.492 246.128 256.903 253.833 258.487 255.584C260.071 257.336 290.959 274.703 292.858 272.42C294.757 270.138 284.986 208.057 283.913 205.774C282.841 203.491 283.569 202.271 279.879 201.74" fill="white"/>
<path d="M276.051 206.296C271.844 210.016 268.951 214.996 267.805 220.495L278.856 251.904C278.856 251.904 265.7 246.463 264.096 246.295C262.492 246.128 256.903 253.833 258.487 255.584C260.071 257.336 290.959 274.703 292.858 272.42C294.757 270.138 284.986 208.057 283.913 205.774C282.841 203.491 283.569 202.271 279.879 201.74" stroke="#263238" stroke-linecap="round" stroke-linejoin="round"/>
<path d="M278.856 251.904C278.856 251.904 285.174 253.311 286.925 256.637L278.856 251.904Z" fill="white"/>
<path d="M278.856 251.904C278.856 251.904 285.174 253.311 286.925 256.637" stroke="#263238" stroke-linecap="round" stroke-linejoin="round"/>
<path d="M208.244 226.034L222.335 257.522C222.481 257.835 222.737 258.083 223.053 258.221L243.216 266.487C243.457 266.59 243.723 266.621 243.981 266.575C244.239 266.53 244.479 266.41 244.67 266.23C244.861 266.05 244.996 265.819 245.057 265.564C245.119 265.309 245.105 265.041 245.016 264.794L233.73 234.29C233.532 233.755 233.22 233.269 232.816 232.866C232.411 232.464 231.924 232.154 231.388 231.958L209.956 224.194C209.704 224.094 209.427 224.072 209.162 224.131C208.897 224.191 208.656 224.329 208.471 224.528C208.285 224.727 208.165 224.978 208.124 225.246C208.084 225.515 208.126 225.79 208.244 226.034Z" fill="#C53F3F" stroke="#263238" stroke-linecap="round" stroke-linejoin="round"/>
<path d="M213.529 242.822C213.332 242.781 213.128 242.787 212.933 242.839C212.739 242.891 212.56 242.988 212.41 243.122C212.26 243.256 212.143 243.423 212.069 243.61C211.995 243.797 211.966 243.999 211.984 244.199C211.979 244.653 212.152 245.091 212.466 245.419C213.243 245.97 219.078 246.403 218.852 245.301C218.704 244.445 215.693 243.245 213.529 242.822Z" fill="white" stroke="#263238" stroke-linecap="round" stroke-linejoin="round"/>
<path d="M211.708 240.696C211.474 240.648 211.232 240.655 211.001 240.717C210.77 240.778 210.557 240.893 210.378 241.052C210.2 241.21 210.06 241.408 209.972 241.63C209.883 241.852 209.848 242.092 209.868 242.33C209.863 242.87 210.072 243.389 210.448 243.776C211.364 244.426 218.32 244.947 218.025 243.638C217.819 242.625 214.247 241.198 211.708 240.696Z" fill="white" stroke="#263238" stroke-linecap="round" stroke-linejoin="round"/>
<path d="M211.157 237.567C210.905 237.521 210.645 237.534 210.398 237.604C210.151 237.674 209.924 237.8 209.734 237.973C209.544 238.145 209.396 238.358 209.301 238.597C209.207 238.835 209.168 239.093 209.189 239.348C209.185 239.935 209.411 240.501 209.819 240.923C210.803 241.631 218.34 242.202 218.055 240.785C217.809 239.673 213.922 238.128 211.157 237.567Z" fill="white" stroke="#263238" stroke-linecap="round" stroke-linejoin="round"/>
<path d="M210.025 234.585C209.773 234.539 209.513 234.552 209.266 234.622C209.02 234.692 208.792 234.818 208.602 234.991C208.412 235.163 208.264 235.376 208.169 235.615C208.075 235.854 208.036 236.111 208.057 236.366C208.05 236.658 208.103 236.948 208.211 237.218C208.319 237.489 208.481 237.735 208.687 237.941C209.671 238.649 217.208 239.22 216.923 237.803C216.667 236.691 212.79 235.176 210.025 234.585Z" fill="white" stroke="#263238" stroke-linecap="round" stroke-linejoin="round"/>
<path d="M236.485 164.918C236.485 164.918 237.666 176.962 240.303 182.542C242.94 188.121 243.826 190.758 246.473 190.758C249.12 190.758 254.109 186.94 256.451 183.418C257.624 181.716 258.705 179.952 259.688 178.133L260.269 176.667C260.269 176.667 264.382 173.715 265.267 171.678C266.153 169.642 264.382 168.156 261.154 169.917C261.154 169.917 262.325 160.815 259.973 155.236C257.622 149.656 239.723 154.941 236.485 164.918Z" fill="white" stroke="#263238" stroke-miterlimit="10"/>
<path d="M233.287 169.494L253.125 173.538C253.125 173.538 253.262 176.618 251.157 177.592C250.122 178.036 248.983 178.178 247.871 178.004C246.759 177.83 245.719 177.346 244.869 176.608C243.334 175.211 243.334 172.554 243.334 172.554C243.334 172.554 242.074 171.57 241.936 172.554C241.795 173.471 241.322 174.304 240.608 174.895C239.893 175.486 238.986 175.795 238.06 175.762C237.134 175.717 236.243 175.397 235.5 174.843C234.756 174.29 234.195 173.527 233.887 172.653C233.545 171.632 233.343 170.569 233.287 169.494Z" fill="white" stroke="#263238" stroke-linecap="round" stroke-linejoin="round"/>
<path d="M253.124 173.538L261.37 169.208" stroke="#263238" stroke-linecap="round" stroke-linejoin="round"/>
<path d="M233.287 169.494L236.495 168.234" stroke="#263238" stroke-linecap="round" stroke-linejoin="round"/>
<path d="M242.084 173.4L240.687 178.576L242.369 178.99L242.782 183.044L245.439 182.345" fill="white"/>
<path d="M242.084 173.4L240.687 178.576L242.369 178.99L242.782 183.044L245.439 182.345" stroke="#263238" stroke-linecap="round" stroke-linejoin="round"/>
<path d="M245.016 145.543C245.016 145.543 233.267 154.645 232.096 160.225C230.925 165.804 238.551 168.156 243.55 167.27C248.549 166.385 255.84 161.691 255.84 161.691C255.84 161.691 251.727 168.156 254.954 168.441C256.416 168.652 257.901 168.652 259.363 168.441C259.363 168.441 257.601 171.974 259.068 171.974C260.534 171.974 261.124 169.917 261.124 169.917C261.124 169.917 265.237 160.225 264.076 151.418C262.915 142.611 252.052 139.964 245.016 145.543Z" fill="#263238" stroke="#263238" stroke-miterlimit="10"/>
</g>
<defs>
<filter id="filter0_d_147_6736" x="-4" y="-4" width="500" height="500" filterUnits="userSpaceOnUse" color-interpolation-filters="sRGB">
<feFlood flood-opacity="0" result="BackgroundImageFix"/>
<feColorMatrix in="SourceAlpha" type="matrix" values="0 0 0 0 0 0 0 0 0 0 0 0 0 0 0 0 0 0 127 0" result="hardAlpha"/>
<feOffset/>
<feGaussianBlur stdDeviation="2"/>
<feComposite in2="hardAlpha" operator="out"/>
<feColorMatrix type="matrix" values="0 0 0 0 0 0 0 0 0 0 0 0 0 0 0 0 0 0 0.25 0"/>
<feBlend mode="normal" in2="BackgroundImageFix" result="effect1_dropShadow_147_6736"/>
<feBlend mode="normal" in="SourceGraphic" in2="effect1_dropShadow_147_6736" result="shape"/>
</filter>
<filter id="filter1_d_147_6736" x="79.1396" y="58.2104" width="331.744" height="313.019" filterUnits="userSpaceOnUse" color-interpolation-filters="sRGB">
<feFlood flood-opacity="0" result="BackgroundImageFix"/>
<feColorMatrix in="SourceAlpha" type="matrix" values="0 0 0 0 0 0 0 0 0 0 0 0 0 0 0 0 0 0 127 0" result="hardAlpha"/>
<feOffset/>
<feGaussianBlur stdDeviation="2"/>
<feComposite in2="hardAlpha" operator="out"/>
<feColorMatrix type="matrix" values="0 0 0 0 0 0 0 0 0 0 0 0 0 0 0 0 0 0 0.25 0"/>
<feBlend mode="normal" in2="BackgroundImageFix" result="effect1_dropShadow_147_6736"/>
<feBlend mode="normal" in="SourceGraphic" in2="effect1_dropShadow_147_6736" result="shape"/>
</filter>
</defs>
</svg>
