<svg width="40" height="40" viewBox="0 0 40 40" fill="none" xmlns="http://www.w3.org/2000/svg">
<rect x="0.5" y="0.5" width="39.0006" height="39" rx="19.5" stroke="black" stroke-opacity="0.1"/>
<path d="M22.7706 20.4C22.9206 20.47 23.0906 20.5 23.2506 20.5C23.5806 20.5 23.8906 20.37 24.1306 20.14L26.3106 18H27.2506C28.7706 18 30.0006 16.77 30.0006 15.25V12.75C30.0006 11.23 28.7706 10 27.2506 10H22.7506C21.2306 10 20.0006 11.23 20.0006 12.75V15.25C20.0006 16.51 20.8506 17.57 22.0006 17.9V19.25C22.0006 19.75 22.3106 20.2 22.7706 20.4ZM16.0006 21.5C14.0706 21.5 12.5006 19.93 12.5006 18C12.5006 16.07 14.0706 14.5 16.0006 14.5C17.9306 14.5 19.5006 16.07 19.5006 18C19.5006 19.93 17.9306 21.5 16.0006 21.5ZM16.0006 30C13.9406 30 12.3606 29.44 11.3006 28.33C9.96459 26.926 9.99759 25.156 10.0006 24.973V24.96C10.0006 23.89 10.9006 23 12.0006 23H20.0006C21.1006 23 22.0006 23.9 22.0006 25L22.0016 25.006C22.0046 25.133 22.0466 26.916 20.7016 28.33C19.6406 29.44 18.0606 30 16.0006 30Z" fill="#919191"/>
</svg>
