<svg width="28" height="28" viewBox="0 0 28 28" fill="none" xmlns="http://www.w3.org/2000/svg">
<path d="M14 12.2732C13.5217 12.2732 13.125 11.8765 13.125 11.3982V7.51318C13.125 7.03485 13.5217 6.63818 14 6.63818C14.4783 6.63818 14.875 7.03485 14.875 7.51318V11.3982C14.875 11.8882 14.4783 12.2732 14 12.2732Z" fill="black"/>
<path d="M14.023 23.7418C11.013 23.7418 8.01468 23.2634 5.15635 22.3068C4.09468 21.9568 3.28968 21.1984 2.93968 20.2418C2.58968 19.2851 2.70635 18.1884 3.27802 17.2318L4.75968 14.7584C5.08635 14.2101 5.37802 13.1834 5.37802 12.5418V10.0918C5.37802 5.32011 9.25135 1.44678 14.023 1.44678C18.7947 1.44678 22.668 5.32011 22.668 10.0918V12.5418C22.668 13.1718 22.9597 14.2101 23.2863 14.7584L24.768 17.2318C25.3163 18.1418 25.4097 19.2268 25.048 20.2184C24.6863 21.2101 23.893 21.9684 22.8897 22.3068C20.0313 23.2751 17.033 23.7418 14.023 23.7418ZM14.023 3.20844C10.2197 3.20844 7.12802 6.30011 7.12802 10.1034V12.5534C7.12802 13.4984 6.75468 14.8634 6.26468 15.6684L4.78302 18.1534C4.47968 18.6551 4.40968 19.1918 4.58468 19.6584C4.75968 20.1251 5.15635 20.4751 5.71635 20.6618C11.083 22.4468 16.9863 22.4468 22.353 20.6618C22.8547 20.4984 23.2397 20.1251 23.4147 19.6351C23.6013 19.1451 23.543 18.6084 23.2747 18.1534L21.793 15.6801C21.303 14.8751 20.9297 13.5101 20.9297 12.5651V10.1151C20.918 6.30011 17.8263 3.20844 14.023 3.20844Z" fill="black"/>
<path d="M14.0002 26.7165C12.7519 26.7165 11.5269 26.2032 10.6402 25.3165C9.75357 24.4299 9.24023 23.2049 9.24023 21.9565H10.9902C10.9902 22.7499 11.3169 23.5199 11.8769 24.0799C12.4369 24.6399 13.2069 24.9665 14.0002 24.9665C15.6569 24.9665 17.0102 23.6132 17.0102 21.9565H18.7602C18.7602 24.5815 16.6252 26.7165 14.0002 26.7165Z" fill="black"/>
</svg>
