<svg width="48" height="50" viewBox="0 0 48 50" fill="none" xmlns="http://www.w3.org/2000/svg">
<rect width="48" height="49.6691" rx="24" fill="#0E2432"/>
<path d="M29.8736 18.4365C29.8736 15.0102 27.361 12.4324 24 12.4324C20.639 12.4324 18.1265 15.0102 18.1265 18.4365C18.1265 21.9606 20.7696 24.8321 24 24.8321C27.2305 24.8321 29.8736 21.9606 29.8736 18.4365ZM19.4317 18.4365C19.4317 15.7281 21.3569 13.7376 24 13.7376C26.6431 13.7376 28.5683 15.6955 28.5683 18.4365C28.5683 21.2427 26.5126 23.5269 24 23.5269C21.4874 23.5269 19.4317 21.2427 19.4317 18.4365Z" fill="white" stroke="white" stroke-width="0.6"/>
<path d="M12.4324 36.5842V37.2368H35.5677V36.5842C35.535 30.2212 31.4562 26.697 23.9837 26.697C16.5112 26.697 12.4324 30.2212 12.4324 36.5842ZM23.9837 28.0023C32.0109 28.0023 34.034 32.179 34.2298 35.9316H13.7376C14.0639 29.4054 19.448 28.0023 23.9837 28.0023Z" fill="white" stroke="white" stroke-width="0.6"/>
</svg>
