<svg width="20" height="20" viewBox="0 0 20 20" fill="none" xmlns="http://www.w3.org/2000/svg">
<path fill-rule="evenodd" clip-rule="evenodd" d="M8.55408 1.75C4.82615 1.75 1.80408 4.77208 1.80408 8.5C1.80408 12.2279 4.82615 15.25 8.55408 15.25C10.4182 15.25 12.1047 14.4953 13.327 13.273C14.5494 12.0506 15.3041 10.3642 15.3041 8.5C15.3041 4.77208 12.282 1.75 8.55408 1.75ZM0.304077 8.5C0.304077 3.94365 3.99773 0.25 8.55408 0.25C13.1104 0.25 16.8041 3.94365 16.8041 8.5C16.8041 10.5078 16.0861 12.3491 14.894 13.7793L19.5844 18.4697C19.8773 18.7626 19.8773 19.2374 19.5844 19.5303C19.2915 19.8232 18.8166 19.8232 18.5237 19.5303L13.8333 14.8399C12.4031 16.032 10.5619 16.75 8.55408 16.75C3.99773 16.75 0.304077 13.0563 0.304077 8.5Z" fill="#0E2432"/>
</svg>
