<svg width="28" height="28" viewBox="0 0 28 28" fill="none" xmlns="http://www.w3.org/2000/svg">
<path d="M19.833 24.7918H8.16634C3.90801 24.7918 1.45801 22.3418 1.45801 18.0835V9.91683C1.45801 5.6585 3.90801 3.2085 8.16634 3.2085H19.833C24.0913 3.2085 26.5413 5.6585 26.5413 9.91683V18.0835C26.5413 22.3418 24.0913 24.7918 19.833 24.7918ZM8.16634 4.9585C4.82967 4.9585 3.20801 6.58016 3.20801 9.91683V18.0835C3.20801 21.4202 4.82967 23.0418 8.16634 23.0418H19.833C23.1697 23.0418 24.7913 21.4202 24.7913 18.0835V9.91683C24.7913 6.58016 23.1697 4.9585 19.833 4.9585H8.16634Z" fill="black"/>
<path d="M13.9996 15.015C13.0196 15.015 12.0279 14.7116 11.2696 14.0933L7.61791 11.1766C7.24458 10.8733 7.17458 10.325 7.47792 9.95163C7.78125 9.5783 8.32959 9.5083 8.70292 9.81164L12.3546 12.7283C13.2412 13.44 14.7462 13.44 15.6329 12.7283L19.2846 9.81164C19.6579 9.5083 20.2179 9.56663 20.5096 9.95163C20.8129 10.325 20.7546 10.885 20.3696 11.1766L16.7179 14.0933C15.9712 14.7116 14.9796 15.015 13.9996 15.015Z" fill="black"/>
</svg>
