<svg width="32" height="32" viewBox="0 0 32 32" fill="none" xmlns="http://www.w3.org/2000/svg">
<path d="M20.9332 23.0665C21.4665 23.5998 21.4665 24.3998 20.9332 24.9332C20.6665 25.1998 20.3998 25.3332 19.9998 25.3332C19.5998 25.3332 19.3332 25.1998 19.0665 24.9332L11.0665 16.9332C10.5332 16.3998 10.5332 15.5998 11.0665 15.0665L19.0665 7.0665C19.5998 6.53317 20.3998 6.53317 20.9332 7.0665C21.4665 7.59984 21.4665 8.39984 20.9332 8.93317L13.8665 15.9998L20.9332 23.0665Z" fill="black"/>
<mask id="mask0_102_1165" style="mask-type:luminance" maskUnits="userSpaceOnUse" x="10" y="6" width="12" height="20">
<path d="M20.9332 23.0665C21.4665 23.5998 21.4665 24.3998 20.9332 24.9332C20.6665 25.1998 20.3998 25.3332 19.9998 25.3332C19.5998 25.3332 19.3332 25.1998 19.0665 24.9332L11.0665 16.9332C10.5332 16.3998 10.5332 15.5998 11.0665 15.0665L19.0665 7.0665C19.5998 6.53317 20.3998 6.53317 20.9332 7.0665C21.4665 7.59984 21.4665 8.39984 20.9332 8.93317L13.8665 15.9998L20.9332 23.0665Z" fill="white"/>
</mask>
<g mask="url(#mask0_102_1165)">
<rect width="32" height="32" fill="white"/>
</g>
</svg>
