<svg width="24" height="24" viewBox="0 0 30 30" fill="none" xmlns="http://www.w3.org/2000/svg">
<path fill-rule="evenodd" clip-rule="evenodd" d="M3.07629 14.9993C3.07666 14.4815 3.49668 14.0621 4.01446 14.0625L26.2507 14.0781C26.7684 14.0785 27.1878 14.4985 27.1874 15.0162C27.1872 15.534 26.767 15.9535 26.2493 15.9531L4.01313 15.9375C3.49537 15.9371 3.07593 15.5171 3.07629 14.9993Z" fill="black"/>
<path fill-rule="evenodd" clip-rule="evenodd" d="M13.1468 5.5865C13.5131 5.95228 13.5136 6.54587 13.1479 6.91232L5.07464 15L13.1479 23.0876C13.5136 23.4541 13.5131 24.0477 13.1468 24.4135C12.7803 24.7792 12.1867 24.7787 11.8209 24.4124L3.0865 15.6624C2.72117 15.2964 2.72117 14.7036 3.0865 14.3376L11.8209 5.58767C12.1867 5.22123 12.7803 5.22071 13.1468 5.5865Z" fill="black"/>
</svg>
