<svg width="18" height="18" viewBox="0 0 18 18" fill="none" xmlns="http://www.w3.org/2000/svg">
<path fill-rule="evenodd" clip-rule="evenodd" d="M3.375 0V2.25H2.25C1.00736 2.25 0 3.25736 0 4.5V15.75C0 16.9926 1.00736 18 2.25 18H15.75C16.9926 18 18 16.9926 18 15.75V4.5C18 3.25736 16.9926 2.25 15.75 2.25H15.1875V0H13.5V2.25H5.0625V0H3.375ZM2.25 3.9375H15.75C16.0607 3.9375 16.3125 4.18934 16.3125 4.5V5.62555L1.6875 5.62555V4.5C1.6875 4.18934 1.93934 3.9375 2.25 3.9375ZM1.6875 7.31305L16.3125 7.31305V15.75C16.3125 16.0607 16.0607 16.3125 15.75 16.3125H2.25C1.93934 16.3125 1.6875 16.0607 1.6875 15.75V7.31305Z" fill="#0E2432"/>
</svg>
