<svg width="28" height="17" viewBox="0 0 28 17" fill="none" xmlns="http://www.w3.org/2000/svg">
<path fill-rule="evenodd" clip-rule="evenodd" d="M11.4705 0.658287C12.9917 -0.393138 15.1056 -0.166113 16.3444 1.20377C17.6208 2.61525 17.5158 4.73814 16.1162 6.02792L15.077 6.98545V8.03712L26.7143 12.9351C26.726 12.9399 26.7378 12.9452 26.7493 12.9506C27.7897 13.4323 28.156 14.4709 27.9409 15.358C27.7269 16.2401 26.9345 17 25.8005 17H2.19955C1.0655 17 0.273103 16.2401 0.0591391 15.358C-0.156031 14.4709 0.210315 13.4323 1.25066 12.9506C1.26224 12.9452 1.27393 12.9399 1.28571 12.9351L12.923 8.03712V6.524C12.923 6.22969 13.0468 5.94844 13.2648 5.74752L14.6459 4.47496C15.195 3.96889 15.23 3.16351 14.7371 2.61844C14.2349 2.06308 13.3451 1.95724 12.7063 2.39871L12.1253 2.80034C11.6381 3.13694 10.9666 3.02028 10.6253 2.53971C10.284 2.05908 10.4022 1.39654 10.8895 1.05985L11.4705 0.658287ZM14 9.89406L2.16989 14.8732C2.17677 14.8741 2.18655 14.875 2.19955 14.875H25.8005C25.8134 14.875 25.8232 14.8741 25.8301 14.8732L14 9.89406Z" fill="#23AD28"/>
</svg>
