<svg width="19" height="19" viewBox="0 0 19 19" fill="none" xmlns="http://www.w3.org/2000/svg">
<path fill-rule="evenodd" clip-rule="evenodd" d="M9.5 18.25C4.66738 18.25 0.75 14.3326 0.75 9.5C0.75 4.66738 4.66738 0.75 9.5 0.75C14.3326 0.75 18.25 4.66738 18.25 9.5C18.25 14.3326 14.3326 18.25 9.5 18.25ZM16.5 9.5C16.5 7.64349 15.7625 5.86301 14.4497 4.55025C13.137 3.2375 11.3565 2.5 9.5 2.5C7.64349 2.5 5.86301 3.2375 4.55025 4.55025C3.2375 5.86301 2.5 7.64349 2.5 9.5C2.5 11.3565 3.2375 13.137 4.55025 14.4497C5.86301 15.7625 7.64349 16.5 9.5 16.5C11.3565 16.5 13.137 15.7625 14.4497 14.4497C15.7625 13.137 16.5 11.3565 16.5 9.5ZM13 8.625C13.2321 8.625 13.4546 8.71719 13.6187 8.88128C13.7828 9.04538 13.875 9.26794 13.875 9.5C13.875 9.73207 13.7828 9.95463 13.6187 10.1187C13.4546 10.2828 13.2321 10.375 13 10.375H10.375C9.4125 10.375 8.625 9.5875 8.625 8.625V5.125C8.625 4.89294 8.71719 4.67038 8.88128 4.50628C9.04538 4.34219 9.26794 4.25 9.5 4.25C9.73207 4.25 9.95463 4.34219 10.1187 4.50628C10.2828 4.67038 10.375 4.89294 10.375 5.125V8.625H13Z" fill="black"/>
</svg>
