<svg width="21" height="22" viewBox="0 0 21 22" fill="none" xmlns="http://www.w3.org/2000/svg">
<path d="M18.0002 4.50098L17.3805 14.5261C17.2222 17.0874 17.143 18.3681 16.501 19.2888C16.1836 19.7441 15.7749 20.1283 15.3009 20.417C14.3424 21.001 13.0592 21.001 10.493 21.001C7.92336 21.001 6.63855 21.001 5.6793 20.4159C5.20504 20.1266 4.79624 19.7418 4.47893 19.2858C3.83712 18.3636 3.7597 17.0811 3.60485 14.5161L3.00024 4.50098" stroke="#DC3545" stroke-width="1.6" stroke-linecap="round"/>
<path d="M19.5 4.50098H1.5" stroke="#DC3545" stroke-width="1.6" stroke-linecap="round"/>
<path d="M14.555 4.5L13.8724 3.09173C13.4189 2.15626 13.1922 1.68852 12.801 1.39681C12.7143 1.3321 12.6224 1.27454 12.5263 1.2247C12.0932 1 11.5734 1 10.5339 1C9.46815 1 8.9353 1 8.49501 1.23412C8.39742 1.28601 8.30431 1.3459 8.21662 1.41317C7.82096 1.7167 7.59995 2.20155 7.15793 3.17126L6.55225 4.5" stroke="#DC3545" stroke-width="1.6" stroke-linecap="round"/>
<path d="M8 15.502L8 9.50195" stroke="#DC3545" stroke-width="1.6" stroke-linecap="round"/>
<path d="M13.0007 15.501L13.0007 9.50098" stroke="#DC3545" stroke-width="1.6" stroke-linecap="round"/>
</svg>
