<svg width="22" height="23" viewBox="0 0 22 23" fill="none" xmlns="http://www.w3.org/2000/svg">
<path d="M11.6183 21.7605C11.193 21.7605 10.7672 21.7605 10.3419 21.7605C10.2907 21.7495 10.2395 21.7365 10.1884 21.7281C9.54831 21.62 8.88692 21.5803 8.27137 21.3943C4.23751 20.1777 1.78063 17.533 0.924715 13.4758C0.848503 13.1143 0.818659 12.7429 0.767496 12.3767V11.1256C0.779755 11.0624 0.793612 10.9992 0.803738 10.9355C0.879948 10.4539 0.921518 9.96441 1.03557 9.49115C2.24056 4.48687 6.96033 1.2341 12.1784 1.81549C14.5335 2.07824 16.5736 3.03365 18.2167 4.7C20.8164 7.33586 21.7224 10.4894 20.908 14.0666C20.0244 17.9488 16.7335 20.9446 12.7204 21.6111C12.3548 21.6717 11.986 21.7114 11.6188 21.7605H11.6183ZM19.597 11.7666C19.6109 7.11072 15.7689 3.3267 11.0065 3.30528C6.25098 3.28334 2.37806 7.0611 2.36367 11.7352C2.34928 16.3921 6.19075 20.1751 10.9548 20.1965C15.7108 20.2174 19.5837 16.4402 19.597 11.7671V11.7666Z" fill="#FF6969"/>
<path d="M11.7777 10.0744C11.7777 10.9144 11.7803 11.7544 11.7766 12.5943C11.775 12.9422 11.557 13.2327 11.2357 13.3387C10.909 13.4463 10.5402 13.3486 10.3515 13.0645C10.2593 12.925 10.1905 12.7411 10.1895 12.5766C10.1778 10.9097 10.1804 9.2423 10.1836 7.57543C10.1847 7.11731 10.5364 6.77934 10.9894 6.783C11.4307 6.78665 11.7745 7.12515 11.7766 7.57386C11.7809 8.40756 11.7777 9.24073 11.7777 10.0744Z" fill="#FF6969"/>
<path d="M10.9653 16.4453C10.3716 16.44 9.89679 15.9631 9.90372 15.3786C9.91065 14.8003 10.4063 14.3271 10.9952 14.336C11.5862 14.3454 12.0632 14.827 12.0568 15.4078C12.0499 15.9898 11.5654 16.4505 10.9653 16.4453Z" fill="#FF6969"/>
</svg>
