<svg width="19" height="32" viewBox="0 0 19 32" fill="none" xmlns="http://www.w3.org/2000/svg">
<circle cx="9.50168" cy="5.499" r="4.699" stroke="#F1416C" stroke-width="1.6"/>
<mask id="path-2-inside-1_165_5154" fill="white">
<path d="M1.00173 22.4991C0.449446 22.4992 -0.00379741 22.0504 0.0541413 21.5012C0.14959 20.5964 0.374736 19.7082 0.724081 18.8644C1.2012 17.7119 1.90065 16.6647 2.78249 15.7825C3.66432 14.9004 4.71128 14.2005 5.86357 13.723C7.01587 13.2455 8.25094 12.9996 9.49827 12.9993C10.7456 12.9991 11.9808 13.2446 13.1332 13.7217C14.2857 14.1988 15.3329 14.8983 16.2151 15.7801C17.0972 16.6619 17.7971 17.7089 18.2746 18.8612C18.6242 19.7049 18.8497 20.5929 18.9455 21.4977C19.0036 22.0469 18.5506 22.496 17.9983 22.4961L9.5 22.4976L1.00173 22.4991Z"/>
</mask>
<path d="M1.00173 22.4991C0.449446 22.4992 -0.00379741 22.0504 0.0541413 21.5012C0.14959 20.5964 0.374736 19.7082 0.724081 18.8644C1.2012 17.7119 1.90065 16.6647 2.78249 15.7825C3.66432 14.9004 4.71128 14.2005 5.86357 13.723C7.01587 13.2455 8.25094 12.9996 9.49827 12.9993C10.7456 12.9991 11.9808 13.2446 13.1332 13.7217C14.2857 14.1988 15.3329 14.8983 16.2151 15.7801C17.0972 16.6619 17.7971 17.7089 18.2746 18.8612C18.6242 19.7049 18.8497 20.5929 18.9455 21.4977C19.0036 22.0469 18.5506 22.496 17.9983 22.4961L9.5 22.4976L1.00173 22.4991Z" stroke="#F1416C" stroke-width="3.2" mask="url(#path-2-inside-1_165_5154)"/>
</svg>
