<svg width="24" height="24" viewBox="0 0 24 24" fill="none" xmlns="http://www.w3.org/2000/svg">
<path d="M19.9408 1.41176H19.0588V0.705882C19.0588 0.316047 18.7428 0 18.3529 0C17.9631 0 17.6471 0.316047 17.6471 0.705882V1.41176H6.35294V0.705882C6.35294 0.316047 6.03689 0 5.64706 0C5.25722 0 4.94118 0.316047 4.94118 0.705882V1.41176H4.05925C1.82094 1.41176 0 3.23271 0 5.47101V19.9408C0 22.1791 1.82094 24 4.05925 24H19.9408C22.1791 24 24 22.1791 24 19.9408V5.47101C24 3.23271 22.1791 1.41176 19.9408 1.41176ZM4.05925 2.82353H4.94118V4.23529C4.94118 4.62513 5.25722 4.94118 5.64706 4.94118C6.03689 4.94118 6.35294 4.62513 6.35294 4.23529V2.82353H17.6471V4.23529C17.6471 4.62513 17.9631 4.94118 18.3529 4.94118C18.7428 4.94118 19.0588 4.62513 19.0588 4.23529V2.82353H19.9408C21.4006 2.82353 22.5882 4.01115 22.5882 5.47101V7.05882H1.41176V5.47101C1.41176 4.01115 2.59939 2.82353 4.05925 2.82353ZM19.9408 22.5882H4.05925C2.59939 22.5882 1.41176 21.4006 1.41176 19.9408V8.47059H22.5882V19.9408C22.5882 21.4006 21.4006 22.5882 19.9408 22.5882Z" fill="#178582"/>
<path d="M16.0161 13.5578L13.6785 13.2181L12.633 11.0999C12.3745 10.5762 11.6257 10.5759 11.3671 11.0999L10.3217 13.2181L7.98401 13.5578C7.40613 13.6417 7.17445 14.354 7.59281 14.7618L9.28429 16.4106L8.885 18.7388C8.78636 19.3142 9.39187 19.7548 9.90918 19.483L12.0001 18.3837L14.0909 19.4829C14.6093 19.7554 15.2136 19.3131 15.1151 18.7388L14.7158 16.4106L16.4073 14.7617C16.8254 14.3543 16.5943 13.6417 16.0161 13.5578ZM13.4646 15.6587C13.2982 15.8208 13.2223 16.0545 13.2616 16.2835L13.4819 17.5677L12.3286 16.9614C12.1229 16.8533 11.8773 16.8533 11.6716 16.9614L10.5183 17.5677L10.7385 16.2835C10.7778 16.0545 10.7019 15.8208 10.5355 15.6587L9.6025 14.7492L10.892 14.5618C11.1219 14.5284 11.3206 14.384 11.4234 14.1757L12.0001 13.0073L12.5767 14.1757C12.6796 14.384 12.8783 14.5284 13.1082 14.5618L14.3977 14.7492L13.4646 15.6587Z" fill="#178582"/>
</svg>
