<svg width="16" height="16" viewBox="0 0 16 16" fill="none" xmlns="http://www.w3.org/2000/svg">
<g clip-path="url(#clip0_167_7178)">
<path d="M6.60002 2.82603C7.05891 2.71862 7.52873 2.66492 8.00002 2.66603C12.6667 2.66603 15.3334 7.99937 15.3334 7.99937C14.9287 8.75644 14.4461 9.46919 13.8934 10.126M9.41335 9.4127C9.23025 9.6092 9.00945 9.7668 8.76412 9.87611C8.51879 9.98543 8.25395 10.0442 7.98541 10.0489C7.71687 10.0537 7.45013 10.0043 7.20109 9.90369C6.95206 9.8031 6.72583 9.65338 6.53592 9.46347C6.346 9.27355 6.19628 9.04733 6.09569 8.79829C5.9951 8.54926 5.9457 8.28251 5.95044 8.01397C5.95518 7.74543 6.01396 7.4806 6.12327 7.23526C6.23258 6.98993 6.39019 6.76913 6.58669 6.58603M11.96 11.9594C10.8204 12.828 9.43276 13.3093 8.00002 13.3327C3.33335 13.3327 0.666687 7.99937 0.666687 7.99937C1.49595 6.45396 2.64611 5.10377 4.04002 4.03937L11.96 11.9594Z" stroke="#D0D0D0" stroke-width="2" stroke-linecap="round" stroke-linejoin="round"/>
<path d="M0.666687 0.666016L15.3334 15.3327" stroke="#D0D0D0" stroke-width="2" stroke-linecap="round" stroke-linejoin="round"/>
</g>
<defs>
<clipPath id="clip0_167_7178">
<rect width="16" height="16" fill="white"/>
</clipPath>
</defs>
</svg>
