<svg width="15" height="22" viewBox="0 0 15 22" fill="none" xmlns="http://www.w3.org/2000/svg">
<path fill-rule="evenodd" clip-rule="evenodd" d="M0.9 0C0.40293 0 0 0.369352 0 0.825V21.175C0 21.6306 0.40293 22 0.9 22H14.1C14.5971 22 15 21.6306 15 21.175V0.825C15 0.369352 14.5971 0 14.1 0H0.9ZM14.1 0.825H10.95V2.75C10.95 3.43346 10.3456 3.9875 9.6 3.9875H5.4C4.65441 3.9875 4.05 3.43346 4.05 2.75V0.825H0.9V10.1985C0.94692 10.1833 0.99741 10.175 1.05 10.175H4.83534C5.05107 8.92815 6.22911 7.975 7.65 7.975C9.07089 7.975 10.2489 8.92815 10.4647 10.175H14.1V0.825ZM10.4647 11C10.2489 12.2469 9.07089 13.2 7.65 13.2C6.22911 13.2 5.05107 12.2469 4.83534 11H1.05C0.99741 11 0.94692 10.9917 0.9 10.9765V21.175H4.05V19.25C4.05 18.5665 4.65441 18.0125 5.4 18.0125H9.6C10.3456 18.0125 10.95 18.5665 10.95 19.25V21.175H14.1V11H10.4647ZM10.05 21.175V19.25C10.05 19.0222 9.84852 18.8375 9.6 18.8375H5.4C5.15148 18.8375 4.95 19.0222 4.95 19.25V21.175H10.05ZM4.95 0.825H10.05V2.75C10.05 2.97781 9.84852 3.1625 9.6 3.1625H5.4C5.15148 3.1625 4.95 2.97781 4.95 2.75V0.825ZM9.6 10.5875C9.6 11.5747 8.72697 12.375 7.65 12.375C6.57303 12.375 5.7 11.5747 5.7 10.5875C5.7 9.60028 6.57303 8.8 7.65 8.8C8.72697 8.8 9.6 9.60028 9.6 10.5875Z" fill="#FF9920"/>
</svg>
