<svg width="16" height="17" viewBox="0 0 16 17" fill="none" xmlns="http://www.w3.org/2000/svg">
<path d="M1.41723 1.55787C0.643119 1.55787 0 2.20098 0 2.9751V6.23317C0 6.91181 0.340054 7.54591 0.904728 7.92234L4.40336 10.2548C4.57526 10.3693 4.6753 10.5607 4.6753 10.7673V16.295C4.67583 16.4068 4.70282 16.517 4.75407 16.6164C4.80532 16.7158 4.87937 16.8016 4.97016 16.8669C5.06096 16.9322 5.16592 16.9751 5.27647 16.992C5.38701 17.009 5.49999 16.9995 5.60618 16.9644L10.2867 15.406C10.4267 15.3585 10.5484 15.2685 10.6346 15.1484C10.7209 15.0284 10.7675 14.8844 10.7678 14.7366V10.7673C10.7678 10.5607 10.8731 10.3693 11.045 10.2548L14.5384 7.92234C15.1031 7.54591 15.4431 6.91181 15.4431 6.23317V2.9751C15.4431 2.20098 14.8 1.55787 14.0259 1.55787H11.6203C11.5272 1.5575 11.435 1.57547 11.3489 1.61076C11.2627 1.64604 11.1844 1.69795 11.1184 1.76351C11.0523 1.82907 10.9998 1.907 10.9639 1.99286C10.928 2.07871 10.9094 2.1708 10.909 2.26387C10.9087 2.35737 10.9268 2.45003 10.9624 2.53648C10.998 2.62294 11.0504 2.70149 11.1165 2.76761C11.1826 2.83373 11.2612 2.88611 11.3476 2.92172C11.4341 2.95733 11.5268 2.97547 11.6203 2.9751H14.0259V6.23317C14.0259 6.43972 13.9258 6.6311 13.754 6.74567L10.2553 9.07809C9.69068 9.45454 9.3506 10.0886 9.3506 10.7673V14.2241L6.09254 15.3118V10.7673C6.09254 10.0886 5.75245 9.45454 5.18781 9.07809L1.68918 6.74567C1.51727 6.6311 1.41723 6.43972 1.41723 6.23317V2.9751H3.8281C3.92116 2.97478 4.01325 2.95613 4.0991 2.92021C4.18496 2.88429 4.2629 2.83181 4.32847 2.76576C4.39404 2.69971 4.44595 2.6214 4.48123 2.53528C4.51652 2.44916 4.53447 2.35693 4.5341 2.26387C4.53346 2.07682 4.4589 1.89762 4.32663 1.76536C4.19437 1.63309 4.01515 1.5585 3.8281 1.55787H1.41723Z" fill="black"/>
<path d="M8.78087 0.208604L5.66401 3.32547C5.53207 3.45821 5.45801 3.63775 5.45801 3.8249C5.45801 4.01205 5.53207 4.1916 5.66401 4.32433C5.79674 4.45627 5.97629 4.53032 6.16344 4.53032C6.35059 4.53032 6.53013 4.45627 6.66287 4.32433L9.78497 1.20747C9.9169 1.07473 9.99096 0.895185 9.99096 0.708035C9.99096 0.520884 9.9169 0.341337 9.78497 0.208604C9.71914 0.142488 9.64089 0.0900247 9.55474 0.0542269C9.46858 0.0184291 9.37622 0 9.28292 0C9.18962 0 9.09726 0.0184291 9.0111 0.0542269C8.92495 0.0900247 8.8467 0.142488 8.78087 0.208604Z" fill="black"/>
<path d="M5.66401 0.20843C5.53207 0.341164 5.45801 0.520711 5.45801 0.707861C5.45801 0.895011 5.53207 1.07456 5.66401 1.20729L8.78087 4.32416C8.8467 4.39028 8.92495 4.44274 9.0111 4.47854C9.09726 4.51433 9.18962 4.53276 9.28292 4.53276C9.37622 4.53276 9.46858 4.51433 9.55474 4.47854C9.64089 4.44274 9.71914 4.39028 9.78497 4.32416C9.9169 4.19143 9.99096 4.01188 9.99096 3.82473C9.99096 3.63758 9.9169 3.45803 9.78497 3.3253L6.66287 0.20843C6.53013 0.0764924 6.35059 0.00244141 6.16344 0.00244141C5.97629 0.00244141 5.79674 0.0764924 5.66401 0.20843Z" fill="black"/>
</svg>
