<svg width="36" height="35" viewBox="0 0 36 35" fill="none" xmlns="http://www.w3.org/2000/svg">
<path d="M11.8801 4.25391C7.87551 4.25391 4.61755 7.43429 4.61755 11.3435V22.6868C4.61755 26.596 7.87551 29.7764 11.8801 29.7764H23.5001C27.5046 29.7764 30.7626 26.596 30.7626 22.6868V11.3435C30.7626 7.43429 27.5046 4.25391 23.5001 4.25391H11.8801ZM11.8801 7.08974H23.5001C25.9025 7.08974 27.8576 8.99826 27.8576 11.3435V22.6868C27.8576 25.0321 25.9025 26.9406 23.5001 26.9406H11.8801C9.47762 26.9406 7.52255 25.0321 7.52255 22.6868V11.3435C7.52255 8.99826 9.47762 7.08974 11.8801 7.08974ZM24.9526 8.50766C24.5673 8.50766 24.1979 8.65704 23.9255 8.92295C23.6531 9.18887 23.5001 9.54952 23.5001 9.92557C23.5001 10.3016 23.6531 10.6623 23.9255 10.9282C24.1979 11.1941 24.5673 11.3435 24.9526 11.3435C25.3378 11.3435 25.7072 11.1941 25.9796 10.9282C26.252 10.6623 26.4051 10.3016 26.4051 9.92557C26.4051 9.54952 26.252 9.18887 25.9796 8.92295C25.7072 8.65704 25.3378 8.50766 24.9526 8.50766ZM17.6901 9.92557C13.6855 9.92557 10.4276 13.106 10.4276 17.0152C10.4276 20.9244 13.6855 24.1047 17.6901 24.1047C21.6946 24.1047 24.9526 20.9244 24.9526 17.0152C24.9526 13.106 21.6946 9.92557 17.6901 9.92557ZM17.6901 12.7614C20.0925 12.7614 22.0476 14.6699 22.0476 17.0152C22.0476 19.3604 20.0925 21.2689 17.6901 21.2689C15.2876 21.2689 13.3326 19.3604 13.3326 17.0152C13.3326 14.6699 15.2876 12.7614 17.6901 12.7614Z" fill="gray"/>
</svg>
