<svg width="36" height="35" viewBox="0 0 36 35" fill="none" xmlns="http://www.w3.org/2000/svg">
<path d="M7.63254 4.25391C6.02753 4.25391 4.72754 5.52294 4.72754 7.08974V26.9406C4.72754 28.5074 6.02753 29.7764 7.63254 29.7764H27.9675C29.5726 29.7764 30.8725 28.5074 30.8725 26.9406V7.08974C30.8725 5.52294 29.5726 4.25391 27.9675 4.25391H7.63254ZM7.63254 7.08974H27.9675V26.9406H7.63254V7.08974ZM11.6695 8.95629C10.4247 8.95629 9.67795 9.68676 9.67795 10.6595C9.67795 11.6321 10.4248 12.3598 11.5446 12.3598C12.7894 12.3598 13.5362 11.6321 13.5362 10.6595C13.5362 9.68676 12.7893 8.95629 11.6695 8.95629ZM9.77725 14.1793V24.1047H13.4425V14.1793H9.77725ZM16.4667 14.1793V24.1047H20.132V18.6795C20.132 17.0645 21.3123 16.8324 21.6668 16.8324C22.0212 16.8324 22.9689 17.1794 22.9689 18.6795V24.1047H26.515V18.6795C26.515 15.5644 25.097 14.1793 23.3235 14.1793C21.55 14.1793 20.604 14.7558 20.132 15.564V14.1793H16.4667Z" fill="gray"/>
</svg>
