<svg width="11" height="16" viewBox="0 0 11 16" fill="none" xmlns="http://www.w3.org/2000/svg">
<path d="M5.24437 15.0674C4.9456 14.6436 4.64915 14.218 4.34785 13.7962C3.28354 12.306 2.21865 10.8161 1.15182 9.32793C0.593191 8.54887 0.219867 7.68606 0.0733009 6.72346C-0.132436 5.37284 0.0951008 4.10211 0.753577 2.91999C1.36067 1.83015 2.22546 1.03299 3.33162 0.536446C4.29179 0.105347 5.29439 -0.0326616 6.33398 0.13929C7.50709 0.333396 8.51729 0.864902 9.3599 1.73137C10.1165 2.50922 10.6185 3.44519 10.853 4.52934C11.1568 5.93382 10.9953 7.28647 10.316 8.53444C9.95336 9.2009 9.48914 9.80903 9.0508 10.4279C7.97832 11.9424 6.89436 13.4477 5.81526 14.9568C5.79054 14.9914 5.77107 15.0302 5.74927 15.067L5.24437 15.0674ZM7.1797 5.66187C7.17892 4.69398 6.41904 3.90333 5.49196 3.90597C4.57071 3.90861 3.81686 4.6954 3.81394 5.6574C3.81102 6.62569 4.5676 7.41939 5.49468 7.42061C6.42177 7.42183 7.18048 6.62996 7.1797 5.66187Z" fill="#6A6A6A"/>
</svg>
