<svg width="20" height="20" viewBox="0 0 20 20" fill="none" xmlns="http://www.w3.org/2000/svg">
<path fill-rule="evenodd" clip-rule="evenodd" d="M19.1667 14.1663C19.1667 14.6663 18.8334 14.9997 18.3334 14.9997H1.66671C1.16671 14.9997 0.833374 14.6663 0.833374 14.1663C0.833374 13.6663 1.16671 13.333 1.66671 13.333C2.58337 13.333 3.33337 12.583 3.33337 11.6663V7.49967C3.33337 3.83301 6.33337 0.833008 10 0.833008C13.6667 0.833008 16.6667 3.83301 16.6667 7.49967V11.6663C16.6667 12.583 17.4167 13.333 18.3334 13.333C18.8334 13.333 19.1667 13.6663 19.1667 14.1663ZM12.1667 17.916C11.6667 18.7493 10.8334 19.166 10.0001 19.166C9.5834 19.166 9.16674 19.0826 8.75007 18.8326C8.3334 18.5826 8.0834 18.3326 7.8334 17.916C7.5834 17.4993 7.75007 16.9993 8.16674 16.7493C8.5834 16.4993 9.0834 16.666 9.3334 17.0826C9.35863 17.1079 9.38386 17.1407 9.4114 17.1766L9.41141 17.1766C9.47484 17.2592 9.55053 17.3579 9.66674 17.416C10.0834 17.666 10.5834 17.4993 10.8334 17.0826C11.0834 16.666 11.5834 16.5826 12.0001 16.7493C12.4167 16.916 12.4167 17.4993 12.1667 17.916ZM15 11.6667C15 12.25 15.1667 12.8333 15.4167 13.3333H4.58337C4.83337 12.8333 5.00004 12.25 5.00004 11.6667V7.5C5.00004 4.75 7.25004 2.5 10 2.5C12.75 2.5 15 4.75 15 7.5V11.6667Z" fill="black"/>
<mask id="mask0_174_11845" style="mask-type:luminance" maskUnits="userSpaceOnUse" x="0" y="0" width="20" height="20">
<path fill-rule="evenodd" clip-rule="evenodd" d="M19.1667 14.1663C19.1667 14.6663 18.8334 14.9997 18.3334 14.9997H1.66671C1.16671 14.9997 0.833374 14.6663 0.833374 14.1663C0.833374 13.6663 1.16671 13.333 1.66671 13.333C2.58337 13.333 3.33337 12.583 3.33337 11.6663V7.49967C3.33337 3.83301 6.33337 0.833008 10 0.833008C13.6667 0.833008 16.6667 3.83301 16.6667 7.49967V11.6663C16.6667 12.583 17.4167 13.333 18.3334 13.333C18.8334 13.333 19.1667 13.6663 19.1667 14.1663ZM12.1667 17.916C11.6667 18.7493 10.8334 19.166 10.0001 19.166C9.5834 19.166 9.16674 19.0826 8.75007 18.8326C8.3334 18.5826 8.0834 18.3326 7.8334 17.916C7.5834 17.4993 7.75007 16.9993 8.16674 16.7493C8.5834 16.4993 9.0834 16.666 9.3334 17.0826C9.35863 17.1079 9.38386 17.1407 9.4114 17.1766L9.41141 17.1766C9.47484 17.2592 9.55053 17.3579 9.66674 17.416C10.0834 17.666 10.5834 17.4993 10.8334 17.0826C11.0834 16.666 11.5834 16.5826 12.0001 16.7493C12.4167 16.916 12.4167 17.4993 12.1667 17.916ZM15 11.6667C15 12.25 15.1667 12.8333 15.4167 13.3333H4.58337C4.83337 12.8333 5.00004 12.25 5.00004 11.6667V7.5C5.00004 4.75 7.25004 2.5 10 2.5C12.75 2.5 15 4.75 15 7.5V11.6667Z" fill="white"/>
</mask>
<g mask="url(#mask0_174_11845)">
<rect width="20" height="20" fill="#6E6B7B"/>
</g>
</svg>
