<svg width="24" height="24" viewBox="0 0 24 24" fill="none" xmlns="http://www.w3.org/2000/svg">
<path d="M11.122 12.9634H10.622V13.4634V18.439V18.8171H9.86585V18.439V6.73171V6.35366H11.122H13.1707C14.9873 6.35366 16.4756 7.84196 16.4756 9.65854C16.4756 11.4751 14.9873 12.9634 13.1707 12.9634H11.122ZM11.122 7.10976H10.622V7.60976V11.7073V12.2073H11.122H13.1707C14.5971 12.2073 15.7195 11.0849 15.7195 9.65854C15.7195 8.23218 14.5971 7.10976 13.1707 7.10976H11.122ZM0.5 12C0.5 5.65914 5.65918 0.5 12 0.5C18.3408 0.5 23.5 5.65914 23.5 12C23.5 18.3409 18.3408 23.5 12 23.5C5.65918 23.5 0.5 18.3409 0.5 12ZM22.7439 12C22.7439 6.05594 17.944 1.2561 12 1.2561C6.05598 1.2561 1.2561 6.05594 1.2561 12C1.2561 17.9441 6.05598 22.7439 12 22.7439C17.944 22.7439 22.7439 17.9441 22.7439 12Z" fill="#23AD28" stroke="#23AD28"/>
</svg>
