<svg width="14" height="14" viewBox="0 0 14 14" fill="none" xmlns="http://www.w3.org/2000/svg">
<path d="M8.24422 2.13127C8.69134 1.64685 8.91489 1.40464 9.15245 1.26336C9.72565 0.922455 10.4315 0.911855 11.0142 1.23539C11.2557 1.36948 11.4862 1.60487 11.947 2.07566C12.4079 2.54644 12.6383 2.78183 12.7696 3.02856C13.0863 3.62387 13.0759 4.34487 12.7422 4.93042C12.6039 5.17309 12.3668 5.40146 11.8926 5.85821L6.25038 11.2926C5.35173 12.1581 4.9024 12.5909 4.34084 12.8102C3.77927 13.0296 3.16192 13.0134 1.92722 12.9811L1.75923 12.9768C1.38334 12.9669 1.1954 12.962 1.08615 12.838C0.976902 12.714 0.991817 12.5226 1.02165 12.1397L1.03785 11.9318C1.1218 10.8541 1.16378 10.3153 1.37422 9.83093C1.58466 9.34657 1.94766 8.95328 2.67366 8.1667L8.24422 2.13127Z" stroke="#0E2432" stroke-width="1.5" stroke-linejoin="round"/>
<path d="M7.60022 2.2002L11.8002 6.4002" stroke="#0E2432" stroke-width="1.5" stroke-linejoin="round"/>
<path d="M8.19983 13L12.9998 13" stroke="#0E2432" stroke-width="1.5" stroke-linecap="round" stroke-linejoin="round"/>
</svg>
