<svg width="33" height="33" viewBox="0 0 33 33" fill="none" xmlns="http://www.w3.org/2000/svg">
<path d="M29.625 13.875H19.125V3.375C19.125 2.67881 18.8484 2.01113 18.3562 1.51885C17.8639 1.02656 17.1962 0.75 16.5 0.75C15.8038 0.75 15.1361 1.02656 14.6438 1.51885C14.1516 2.01113 13.875 2.67881 13.875 3.375V13.875H3.375C2.67881 13.875 2.01113 14.1516 1.51885 14.6438C1.02656 15.1361 0.75 15.8038 0.75 16.5C0.75 17.1962 1.02656 17.8639 1.51885 18.3562C2.01113 18.8484 2.67881 19.125 3.375 19.125H13.875V29.625C13.875 30.3212 14.1516 30.9889 14.6438 31.4812C15.1361 31.9734 15.8038 32.25 16.5 32.25C17.1962 32.25 17.8639 31.9734 18.3562 31.4812C18.8484 30.9889 19.125 30.3212 19.125 29.625V19.125H29.625C30.3212 19.125 30.9889 18.8484 31.4812 18.3562C31.9734 17.8639 32.25 17.1962 32.25 16.5C32.25 15.8038 31.9734 15.1361 31.4812 14.6438C30.9889 14.1516 30.3212 13.875 29.625 13.875Z" fill="#38B53D"/>
</svg>
