<svg width="17" height="18" viewBox="0 0 17 18" fill="none" xmlns="http://www.w3.org/2000/svg">
<path opacity="0.3" d="M7.66667 9.83366H4.33333C4.11232 9.83366 3.90036 9.74586 3.74408 9.58958C3.5878 9.4333 3.5 9.22134 3.5 9.00033C3.5 8.77931 3.5878 8.56735 3.74408 8.41107C3.90036 8.25479 4.11232 8.16699 4.33333 8.16699H7.66667V9.83366ZM12.6667 8.16699H9.33333V9.83366H12.6667C12.8877 9.83366 13.0996 9.74586 13.2559 9.58958C13.4122 9.4333 13.5 9.22134 13.5 9.00033C13.5 8.77931 13.4122 8.56735 13.2559 8.41107C13.0996 8.25479 12.8877 8.16699 12.6667 8.16699Z" fill="white"/>
<path d="M12.6667 8.16667H9.33333V4.83333C9.33333 4.61232 9.24554 4.40036 9.08926 4.24408C8.93297 4.0878 8.72101 4 8.5 4C8.27899 4 8.06702 4.0878 7.91074 4.24408C7.75446 4.40036 7.66667 4.61232 7.66667 4.83333V8.16667H4.33333C4.11232 8.16667 3.90036 8.25446 3.74408 8.41074C3.5878 8.56702 3.5 8.77899 3.5 9C3.5 9.22101 3.5878 9.43297 3.74408 9.58926C3.90036 9.74554 4.11232 9.83333 4.33333 9.83333H7.66667V13.1667C7.66667 13.3877 7.75446 13.5996 7.91074 13.7559C8.06702 13.9122 8.27899 14 8.5 14C8.72101 14 8.93297 13.9122 9.08926 13.7559C9.24554 13.5996 9.33333 13.3877 9.33333 13.1667V9.83333H12.6667C12.8877 9.83333 13.0996 9.74554 13.2559 9.58926C13.4122 9.43297 13.5 9.22101 13.5 9C13.5 8.77899 13.4122 8.56702 13.2559 8.41074C13.0996 8.25446 12.8877 8.16667 12.6667 8.16667Z" fill="white"/>
</svg>
