<svg width="22" height="23" viewBox="0 0 22 23" fill="none" xmlns="http://www.w3.org/2000/svg">
<path d="M11 0.624268C4.93103 0.624268 0 5.5553 0 11.6243C0 17.6932 4.93103 22.6243 11 22.6243C17.069 22.6243 22 17.6932 22 11.6243C22 5.5553 17.069 0.624268 11 0.624268ZM11 21.107C5.76552 21.107 1.51724 16.8587 1.51724 11.6243C1.51724 6.38978 5.76552 2.14151 11 2.14151C16.2345 2.14151 20.4828 6.38978 20.4828 11.6243C20.4828 16.8587 16.2345 21.107 11 21.107ZM15.5517 10.1829L13.2759 12.4208L13.8069 15.5691L11 14.0519L8.1931 15.5312L8.72414 12.3829L6.44828 10.145L9.59655 9.68979L11 6.84496L12.4034 9.68979L15.5517 10.1829Z" fill="#6A6A6A"/>
</svg>
