<svg width="17" height="22" viewBox="0 0 17 22" fill="none" xmlns="http://www.w3.org/2000/svg">
<path d="M8.5157 10.0871C11.2896 10.0871 13.5592 7.81748 13.5592 5.04354C13.5592 2.26959 11.2896 0 8.5157 0C5.74176 0 3.47217 2.26959 3.47217 5.04354C3.47217 7.81748 5.74176 10.0871 8.5157 10.0871ZM8.5157 1.26088C10.5962 1.26088 12.2984 2.96308 12.2984 5.04354C12.2984 7.124 10.5962 8.82619 8.5157 8.82619C6.43525 8.82619 4.73305 7.124 4.73305 5.04354C4.73305 2.96308 6.43525 1.26088 8.5157 1.26088Z" fill="#6A6A6A"/>
<path d="M1.20263 21.6234H15.7974C16.1126 21.6234 16.4593 21.4973 16.68 21.2451C16.9006 20.993 17.0267 20.6462 16.9952 20.2995C16.68 15.4766 13.0234 11.8516 8.48424 11.8516C3.94506 11.8516 0.320014 15.5081 0.00479333 20.331C-0.0267288 20.6778 0.0993596 21.0245 0.320014 21.2767C0.572191 21.4973 0.887412 21.6234 1.20263 21.6234ZM8.51576 13.1124C12.3615 13.1124 15.4821 16.2331 15.7658 20.3625H1.26568C1.54938 16.2331 4.67006 13.1124 8.51576 13.1124Z" fill="#6A6A6A"/>
</svg>
